<?xml version="1.0" encoding="utf-8"?>
<!-- Generator: Adobe Illustrator 24.3.0, SVG Export Plug-In . SVG Version: 6.00 Build 0)  -->
<svg version="1.1" id="Capa_1" xmlns="http://www.w3.org/2000/svg" xmlns:xlink="http://www.w3.org/1999/xlink" x="0px" y="0px"
	 viewBox="0 0 700 700" style="enable-background:new 0 0 700 700;" xml:space="preserve">
<g>
	<path d="M633.2,80.2H290.3c-14.2,0.1-27.8,5.6-38,15.5L28.6,304.3c-11.3,10.6-17.7,25.3-17.7,40.8v213.9c0,16.1,6.4,31.5,17.8,42.9
		c11.4,11.4,26.8,17.8,42.9,17.8h561.6c14.8,0,29-5.9,39.4-16.3c10.5-10.5,16.4-24.6,16.4-39.4V135.9c0-14.8-5.9-29-16.4-39.4
		C662.2,86.1,648,80.2,633.2,80.2L633.2,80.2z M565.9,485.6c0,5.6-2.2,11-6.2,15c-4,4-9.4,6.2-15,6.2h-75.2
		c-11.7,0-21.2-9.5-21.2-21.2v-25.5h117.6L565.9,485.6z M583.1,367.8c0,5.6-2.2,11-6.2,15c-4,4-9.4,6.2-15,6.2H146.8
		c-8.7,0-16.5-5.4-19.7-13.4c-3.2-8.1-1.1-17.3,5.2-23.2L304,191.9c3.9-3.6,8.9-5.7,14.2-5.7h243.7c5.6,0,11,2.2,15,6.2
		c4,4,6.2,9.4,6.2,15L583.1,367.8z"/>
</g>
</svg>
