<?xml version="1.0" encoding="utf-8"?>
<!-- Generator: Adobe Illustrator 24.3.0, SVG Export Plug-In . SVG Version: 6.00 Build 0)  -->
<svg version="1.1" id="Capa_1" xmlns="http://www.w3.org/2000/svg" xmlns:xlink="http://www.w3.org/1999/xlink" x="0px" y="0px"
	 viewBox="0 0 550 550" style="enable-background:new 0 0 550 550;" xml:space="preserve">
<g>
	<path d="M190,6c12.7,3.1,26,4.8,38,9.5c41.1,16,68.9,45.7,80.3,88.3c14.6,54.5,0,101.8-42.6,139c-29.9,26.1-65.9,36.1-105.3,30.1
		c-47.4-7.2-81.7-33.2-102.6-76.3C33.5,146.4,45.8,81.9,86.4,43.6c22.3-21,48.5-33.4,79-36.8c1.2-0.1,2.4-0.5,3.5-0.8
		C176,6,183,6,190,6z"/>
	<path d="M413.1,6c2.3,0.6,4.6,1.3,7,1.9c29.4,7.4,48.8,34.3,46.6,64.6c-2.2,29.3-25.9,53.3-55.9,56.4c-28,2.9-56.3-16.6-64.5-44.3
		c-10.2-34.5,12.3-71,47.7-77.5c1.2-0.2,2.2-0.7,3.4-1.1C402.6,6,407.9,6,413.1,6z"/>
	<path d="M260.6,332c0.8,18.6,10.4,32.4,21.8,45.7c14.3,16.6,28.1,33.6,42.1,50.5c0.9,1,1.6,2.2,3.1,4.2
		c-14.2-3.2-27.5-5.9-40.7-9.2c-3.8-0.9-6-0.1-8.4,2.9c-27.6,33.8-55.3,67.5-83,101.2c-10.9,13.3-24.8,19.3-41.8,16.7
		c-31.5-5-48.6-43.1-25-71.6c26.7-32.2,53.1-64.7,79.7-97.1c9-11,18-21.9,27.5-32.5C241.7,336.4,251,332.8,260.6,332z"/>
	<path d="M322.6,300.5c9.5,1.1,16.4,5.3,22.1,12.1c12.8,15.4,25.6,30.7,38.4,46.1c37.9,45.6,75.8,91.1,113.7,136.7
		c10.6,12.8,10.5,27.8-0.2,38.3c-10.3,10.2-26.9,10.8-36.9,0.2c-11-11.8-21-24.4-31.4-36.8c-41.4-49.7-82.8-99.5-124.2-149.2
		c-12.2-14.7-10.5-33.1,4.4-42.2C312.8,303.1,317.9,302.1,322.6,300.5z"/>
	<path d="M439.2,370.2c-11.4-13.7-22.1-26.7-32.9-39.5c-12.8-15.3-25.8-30.5-38.6-45.8c-1-1.2-1.5-3.5-1.3-5.1
		c5-32.3,10.2-64.7,15.3-97c3.6-22.4,17.6-36.4,39-39.2c24.7-3.1,48.3,17.8,47,42.8c-0.7,13.9-3.5,27.7-5.7,41.6
		c-7.1,44.9-14.4,89.9-21.6,134.8C440.2,364.8,439.8,366.9,439.2,370.2z"/>
</g>
</svg>
