<?xml version="1.0" encoding="utf-8"?>
<!-- Generator: Adobe Illustrator 24.3.0, SVG Export Plug-In . SVG Version: 6.00 Build 0)  -->
<svg version="1.1" id="Capa_1" xmlns="http://www.w3.org/2000/svg" xmlns:xlink="http://www.w3.org/1999/xlink" x="0px" y="0px"
	 viewBox="0 0 700 700" style="enable-background:new 0 0 700 700;" xml:space="preserve">
<style type="text/css">
	.st0{fill-rule:evenodd;clip-rule:evenodd;}
</style>
<g>
	<path class="st0" d="M96.6,37.1h506.7c47.7,0,86.7,39,86.7,86.6v282c0,47.6-39,86.6-86.7,86.6h-41.2c2.5,22-6,39.7-28.8,66.5
		c-12,14.2-27.4,43.3-11.4,59.2c24.2,24.2-12.6,61-36.8,36.8c-36.9-36.9-20.7-95.2,8.6-129.7c13.8-16.3,17.6-23.9,15.9-32.9h-137
		c2.5,22-6,39.7-28.8,66.5c-12,14.2-27.3,43.3-11.4,59.2c24.2,24.2-12.6,61-36.8,36.8c-36.9-36.9-20.7-95.2,8.5-129.7
		c13.8-16.3,17.6-23.9,15.9-32.9H183.2c2.5,22-6,39.7-28.8,66.5c-12,14.2-27.3,43.3-11.4,59.2c24.2,24.2-12.6,61-36.8,36.8
		c-36.9-36.9-20.7-95.2,8.5-129.7c13.8-16.3,17.6-23.9,15.9-32.9H96.7c-23.8,0-45.6-9.8-61.2-25.4C19.8,451.3,10,429.6,10,405.8
		v-282C10,76.2,49.1,37.1,96.6,37.1L96.6,37.1z M117.8,340.8c-23.3,36.7-18.9,70.3-8.6,99.5H96.6c-19,0-34.5-15.5-34.5-34.5v-282
		c0-19.2,15.4-34.5,34.5-34.5h506.7c19,0,34.6,15.5,34.6,34.5v282c0,19-15.5,34.5-34.6,34.5h-59.1c-8.7-20.4-16.3-44.4-3.6-69.4
		l47.3,32.6L620.6,207l-168,103.4l44.1,30.4c-23.3,36.7-18.9,70.3-8.6,99.5H354.7c-8.7-20.4-16.3-44.4-3.6-69.4l47.3,32.6L431.1,207
		l-168,103.4l44.1,30.4c-23.3,36.7-18.9,70.3-8.6,99.5H165.2c-8.7-20.4-16.3-44.4-3.6-69.4l47.3,32.6L241.7,207l-168,103.4
		L117.8,340.8z"/>
</g>
</svg>
