<?xml version="1.0" encoding="utf-8"?>
<!-- Generator: Adobe Illustrator 24.3.0, SVG Export Plug-In . SVG Version: 6.00 Build 0)  -->
<svg version="1.1" id="Capa_1" xmlns="http://www.w3.org/2000/svg" xmlns:xlink="http://www.w3.org/1999/xlink" x="0px" y="0px"
	 viewBox="0 0 700 700" style="enable-background:new 0 0 700 700;" xml:space="preserve">
<g>
	<path d="M555.1,575.6v78.1c0,10.8-8.7,19.5-19.5,19.5H164.4c-10.8,0-19.5-8.7-19.5-19.5v-78.1c0-43.1,35-78.1,78.1-78.1H477
		C520.1,497.5,555.1,532.5,555.1,575.6z M223,462.3H477V306c0-70.1-56.8-127-127-127s-127,56.8-127,127L223,462.3z M350,130.2
		c10.8,0,19.5-8.8,19.5-19.5V32.5c0-10.8-8.8-19.5-19.5-19.5c-10.8,0-19.5,8.8-19.5,19.5v78.1C330.5,121.4,339.2,130.2,350,130.2z
		 M501.9,181.7l55.2-55.2c7.6-7.6,7.6-20,0-27.6c-7.6-7.6-20-7.6-27.6,0l-55.2,55.2c-7.6,7.6-7.6,20,0,27.6
		C481.9,189.3,494.3,189.4,501.9,181.7L501.9,181.7z M623.5,286.5h-78.1c-10.8,0-19.5,8.8-19.5,19.5c0,10.8,8.8,19.5,19.5,19.5h78.1
		c10.8,0,19.5-8.8,19.5-19.5C643,295.2,634.2,286.5,623.5,286.5L623.5,286.5z M198.1,181.7c7.5,7.5,19.9,7.7,27.6,0
		c7.6-7.6,7.6-20,0-27.6l-55.2-55.2c-7.6-7.6-20-7.6-27.6,0c-7.6,7.6-7.6,20,0,27.6L198.1,181.7z M174.2,306
		c0-10.8-8.8-19.5-19.5-19.5H76.5c-10.8,0-19.5,8.8-19.5,19.5c0,10.8,8.8,19.5,19.5,19.5h78.1C165.5,325.5,174.2,316.8,174.2,306z"
		/>
</g>
</svg>
