<?xml version="1.0" encoding="utf-8"?>
<!-- Generator: Adobe Illustrator 24.3.0, SVG Export Plug-In . SVG Version: 6.00 Build 0)  -->
<svg version="1.1" id="Capa_1" xmlns="http://www.w3.org/2000/svg" xmlns:xlink="http://www.w3.org/1999/xlink" x="0px" y="0px"
	 viewBox="0 0 700 700" style="enable-background:new 0 0 700 700;" xml:space="preserve">
<g>
	<path d="M667.9,152c-14.1-13.7-33.1-21.2-52.8-20.9H238.2c-13.8-0.2-27.4,3.5-39.3,10.5c-11.9,7-21.6,17.2-28.1,29.4L17.7,462.8
		c-11.6,22-10.8,48.5,2.2,69.8c13.8,22.8,38.6,36.5,65.2,36.2h46.2h483.9h2.4l0,0c0.4,0,0.7,0,1,0c0.1,0,0.3,0,0.4,0
		c0.1,0,0.2,0,0.3,0c18.2-0.7,35.5-8.1,48.6-20.8c14.1-13.7,22.3-32.4,22.6-52.1V204.1C690.2,184.4,682.1,165.7,667.9,152z
		 M85,520.2c-4.8,0.3-9.6-0.8-13.9-3c-4.3-2.2-7.9-5.6-10.4-9.6c-2-3.4-3-7.2-3-11.1s1-7.7,3-11.1l153.2-291.8
		c2.4-4.3,6-7.9,10.2-10.3c4.3-2.4,9.1-3.7,14.1-3.6l376.9,0c6.8-0.3,13.4,2,18.4,6.6c5,4.6,8,10.9,8.3,17.7v121.6H258.7
		c-13.5,0-26.8,3.8-38.3,10.9c-11.5,7.1-20.8,17.3-26.9,29.4l-77.2,154.2H85z M633.5,513.6c-5,4.6-11.6,6.9-18.4,6.6H170.6
		L237,387.7c2-4,5.1-7.4,8.9-9.7c3.8-2.4,8.2-3.6,12.7-3.6h383.2v121.6C641.6,502.7,638.6,509,633.5,513.6z"/>
	<path d="M414.4,299.1c7.9,3.2,16.9,2,23.7-3.1l45.7-36.5l45.7,36.5c4.3,3.4,9.6,5.3,15.1,5.4l0,0c6.7,0,13.2-2.9,17.7-7.8
		c4.6-5,6.9-11.6,6.4-18.3c-0.5-6.7-3.8-12.9-9-17.1l-60.8-48.6c-4.3-3.5-9.7-5.3-15.2-5.3c-5.5,0-10.9,1.9-15.2,5.3l-60.8,48.6
		c-6.5,5.5-9.6,14-8.2,22.4C400.9,288.9,406.5,296,414.4,299.1z"/>
	<polygon points="483.8,495.9 483.8,495.9 483.8,495.9 	"/>
	<path d="M553.4,400.9c-7.9-3.2-16.9-2-23.7,3.1h0l-45.7,36.5L438.3,404c-6.8-5.1-15.8-6.3-23.7-3.1c-7.9,3.2-13.6,10.2-14.9,18.6
		c-1.4,8.4,1.7,16.9,8.2,22.4l60.8,48.6c4.3,3.4,9.6,5.3,15.1,5.4c5.6,0.1,11.2-1.8,15.6-5.4l60.8-48.6c6.5-5.5,9.6-14,8.2-22.4
		C567,411.1,561.3,404,553.4,400.9z"/>
</g>
</svg>
