<?xml version="1.0" encoding="utf-8"?>
<!-- Generator: Adobe Illustrator 24.3.0, SVG Export Plug-In . SVG Version: 6.00 Build 0)  -->
<svg version="1.1" id="Capa_1" xmlns="http://www.w3.org/2000/svg" xmlns:xlink="http://www.w3.org/1999/xlink" x="0px" y="0px"
	 viewBox="0 0 700 700" style="enable-background:new 0 0 700 700;" xml:space="preserve">
<g>
	<path d="M555.1,380.5c1.2-10.7,2.7-25.5,4.3-44.1l1.3-18.2c-17.7,31.8-55,51.7-85,63h-64.5l1-11.6l50.2-83.6
		c10-2.1,19.2-7.1,26.5-14.3c3-5.8,5.1-12.1,6.3-18.5c4.2-16.9,9.9-40.1,31.5-40.1c23.3,0,34.3,13.5,39.6,28.8l1.9-26.9
		c1.6-59.1-16.8-110.1-53.3-147.5C475.9,27.5,418.9,6,350.1,6S224.4,27.2,185.3,67.4c-36.4,37.6-54.9,88.5-53.2,148l1.9,26.5
		c5.4-15.2,16.1-28.8,39.6-28.8c21.5,0,27.4,23.2,31.5,40.1c1.1,6.5,3.2,12.7,6.2,18.6c5.4,6.7,17,12.4,32.2,15.7l44.7,81.2
		l1.1,12.6h-64.5c-30.3-11.4-67.6-31.3-85.4-63.3l1.3,18.3c1.6,18.6,3.1,33.4,4.3,44.2v0c2.7,21.1-3.1,42.4-16.1,59.1
		c-11.4,14.2-38.2,47.4-18.4,112.9l13.8,50.5c13,41.9,56.2,90.9,135.9,90.9H440c79.7,0,122.9-49,135.8-91.4l13.6-49.7
		c19.8-65.9-6.9-99.2-18.4-113.4C558.1,422.8,552.4,401.5,555.1,380.5L555.1,380.5z M350.1,89.3c29.9,0.1,58.3,12.9,78.2,35.3
		c19.9,22.3,29.2,52.1,25.8,81.8c-3.4,29.7-19.3,56.5-43.7,73.8h-11.9L348,364.3l-46.2-84.2h-11.9c-24.5-17.2-40.4-44.1-43.9-73.8
		c-3.4-29.7,6-59.5,25.8-81.8C291.8,102.2,320.2,89.4,350.1,89.3L350.1,89.3z M299.7,621.4H294c-41.1,0-93.3-58.5-93.3-124.3
		c0.4-20.3,7-40,18.8-56.5h74.8l3.9,44.5c-2.9,6.4-4.4,13.4-4.5,20.4c0,19.6,10,30.9,28.3,51.4l1.4,1.6c7.3,7.1,11.7,16.7,12.3,26.9
		c0,9.5-3.8,18.7-10.5,25.5C318.4,617.6,309.3,621.4,299.7,621.4L299.7,621.4z M406.3,621.4h-5.7c-9.5,0-18.7-3.8-25.4-10.5
		c-6.7-6.7-10.5-15.9-10.5-25.4c0.6-10.2,5-19.8,12.3-26.9l1.4-1.6c18.3-20.5,28.3-31.9,28.3-51.4c0-7-1.6-14-4.5-20.4l3.9-44.5
		h76.2c11,16.8,17,36.4,17.4,56.5C499.6,562.9,447.4,621.4,406.3,621.4L406.3,621.4z"/>
</g>
</svg>
