<?xml version="1.0" encoding="utf-8"?>
<!-- Generator: Adobe Illustrator 24.3.0, SVG Export Plug-In . SVG Version: 6.00 Build 0)  -->
<svg version="1.1" id="Capa_1" xmlns="http://www.w3.org/2000/svg" xmlns:xlink="http://www.w3.org/1999/xlink" x="0px" y="0px"
	 viewBox="0 0 700 700" style="enable-background:new 0 0 700 700;" xml:space="preserve">
<style type="text/css">
	.st0{fill-rule:evenodd;clip-rule:evenodd;}
</style>
<g>
	<path class="st0" d="M140.5,249.8c10.9-13.1,32.7-19.6,49.1-21.8c109.1-16.4,211.6-16.4,320.7,0c15.3,2.2,38.2,8.7,48,21.8
		c12,39.3,22.9,78.5,33.8,118.9c5.5-4.4,12-6.5,19.6-6.5h46.9c19.6,0,33.8,15.3,33.8,33.8c0,17.5-15.3,32.7-33.8,32.7h-21.8
		c6.5,14.2,12,33.8,12,63.3c1.1,56.7,1.1,113.5,1.1,170.2c0,10.9-8.7,18.5-18.5,18.5h-85.1c-9.8,0-18.5-7.6-18.5-18.5v-22.9H172.2
		v22.9c0,10.9-8.7,18.5-19.6,18.5h-84c-10.9,0-19.6-7.6-19.6-18.5c0-56.7,1.1-113.5,1.1-170.2c0-29.5,5.5-49.1,12-63.3H40.2
		c-17.5,0-32.7-15.3-32.7-32.7c0-18.5,14.2-33.8,32.7-33.8h48c6.5,0,13.1,2.2,18.5,6.5C117.6,328.4,128.5,289.1,140.5,249.8
		L140.5,249.8z M272.5,547.6h154.9c9.8,0,17.5,7.6,17.5,17.5c0,9.8-7.6,17.5-17.5,17.5H272.5c-9.8,0-17.5-7.6-17.5-17.5
		C255.1,555.3,262.7,547.6,272.5,547.6z M172.2,265.1c-8.7,32.7-17.5,66.5-27.3,100.4c133.1-14.2,276-14.2,409.1,0
		c-8.7-33.8-18.5-67.6-27.3-100.4C410,244.4,290,244.4,172.2,265.1L172.2,265.1z M547.5,449.5c-20.7,0-38.2,16.4-38.2,37.1
		s17.5,38.2,38.2,38.2c20.7,0,37.1-17.5,37.1-38.2C584.5,465.8,568.2,449.5,547.5,449.5z M152.5,449.5c20.7,0,37.1,16.4,37.1,37.1
		s-16.4,38.2-37.1,38.2s-37.1-17.5-37.1-38.2C115.5,465.8,131.8,449.5,152.5,449.5z"/>
</g>
<path d="M386.2,180.1c-19.7-19.7-51.8-19.7-71.5,0c-5.6,5.6-5.6,14.8,0,20.4c5.6,5.6,14.8,5.6,20.4,0c8.4-8.4,22.2-8.4,30.6,0
	c5.6,5.6,14.8,5.6,20.4,0S391.9,185.8,386.2,180.1z"/>
<path d="M437.3,129c-47.9-47.9-125.7-47.9-173.6,0c-5.6,5.6-5.6,14.8,0,20.4c5.6,5.6,14.8,5.6,20.4,0c36.6-36.6,96.2-36.6,132.8,0
	c5.6,5.6,14.8,5.6,20.4,0C443,143.8,443,134.7,437.3,129z"/>
<path d="M212.6,98.4c5.6,5.6,14.8,5.6,20.4,0c64.8-64.8,170.1-64.8,234.9,0c5.6,5.6,14.8,5.6,20.4,0s5.6-14.8,0-20.4
	c-76-76-199.7-76-275.7,0C207,83.6,207,92.8,212.6,98.4z"/>
</svg>
