<?xml version="1.0" encoding="utf-8"?>
<!-- Generator: Adobe Illustrator 24.3.0, SVG Export Plug-In . SVG Version: 6.00 Build 0)  -->
<svg version="1.1" id="Capa_1" xmlns="http://www.w3.org/2000/svg" xmlns:xlink="http://www.w3.org/1999/xlink" x="0px" y="0px"
	 viewBox="0 0 700 700" style="enable-background:new 0 0 700 700;" xml:space="preserve">
<path d="M625.8,442c-38.1-54.9-39.7-130-4.1-186.9l45.1-72.1c3.3-5.2,3-11.9-0.6-16.9l-61.8-84c-4.6-6.3-13.2-8-19.9-3.9L545.3,102
	c-18.6,11.3-40.4,12.2-59.7,2.4c-19.6-9.9-34.1-29.9-38.8-53.6L442,27.1c-1.4-7-7.6-12.1-14.7-12.1H272.7c-7.2,0-13.3,5-14.7,12.1
	l-4.7,23.7c-4.7,23.7-19.3,43.7-38.8,53.6c-19.3,9.7-41.1,8.9-59.7-2.4l-39.1-23.7c-6.6-4-15.3-2.3-19.9,3.9l-61.8,84
	c-3.7,5-3.9,11.6-0.6,16.9l45.1,72.1c35.6,56.9,34,132-4.1,186.9l-40.6,58.5c-3.3,4.7-3.6,11-0.7,16l61.8,108.8
	c3.3,5.7,9.9,8.7,16.3,7.2l32.5-7.2c61.9-13.7,126,3.3,175.8,46.8l20.7,18.1c2.8,2.5,6.4,3.7,9.9,3.7s7.1-1.2,9.9-3.7l20.7-18.1
	c49.8-43.5,113.9-60.6,175.8-46.8l32.5,7.2c6.4,1.4,13.1-1.5,16.3-7.2l61.8-108.8c2.9-5,2.6-11.2-0.7-16L625.8,442z M578,251.5
	l-14.2,22.7c-3,4.9-8.2,7.5-13.6,7.5c-2.9,0-5.8-0.8-8.5-2.4c-7.5-4.7-9.8-14.6-5.1-22.1l14.2-22.7c4.7-7.5,14.6-9.8,22.1-5.1
	C580.4,234.2,582.7,244,578,251.5z M549.8,428.3c-2.8,1.9-6,2.9-9.1,2.9c-5.1,0-10-2.4-13.1-6.9l-0.2-0.2
	c-5.8-8.3-10.6-17.4-14.3-26.9c-3.2-8.2,0.9-17.5,9.1-20.7c8.2-3.2,17.5,0.9,20.7,9.1c2.8,7.2,6.4,14,10.7,20.2l0.2,0.2
	C558.8,413.3,557.1,423.3,549.8,428.3z M523.6,163.6c7.1-5.2,17.1-3.7,22.4,3.4l15.8,21.5c5.2,7.1,3.7,17.1-3.4,22.4
	c-2.9,2.1-6.2,3.1-9.5,3.1c-4.9,0-9.8-2.3-12.9-6.5l-15.8-21.5C514.9,178.8,516.5,168.8,523.6,163.6z M530.1,297.5
	c8.4,2.6,13.1,11.6,10.5,20c-2.3,7.3-3.7,15-4.3,22.7c-0.7,8.4-7.7,14.8-15.9,14.8c-0.4,0-0.8,0-1.3,0c-8.8-0.7-15.4-8.4-14.7-17.2
	c0.8-10.1,2.7-20.1,5.7-29.7C512.7,299.6,521.6,294.8,530.1,297.5z M146.6,177.1l14.8-20.1c0.9-1.2,1.8-2.3,2.8-3.3
	c6.3-6.2,16.5-6,22.6,0.3c6,6.2,6,16.1,0.1,22.3L172.4,196c-3.1,4.3-8,6.5-12.9,6.5c-3.3,0-6.6-1-9.5-3.1
	C142.9,194.2,141.4,184.2,146.6,177.1z M113.6,230.1c0.2-8.8,7.5-15.8,16.3-15.7c8.2,0.1,14.9,6.4,15.6,14.4l10.2,16.3
	c4.7,7.5,2.4,17.4-5.1,22.1c-2.6,1.7-5.6,2.4-8.5,2.4c-5.3,0-10.5-2.7-13.6-7.5l-11-17.6c-2.6-4.2-4-9-4-14L113.6,230.1z
	 M141.4,484.8c-2.5,1.4-5.2,2.1-7.9,2.1c-5.6,0-11-2.9-13.9-8.1l-2.5-4.4c-2.3-3.9-3.5-8.5-3.5-13c0-5.4,1.6-10.6,4.7-15l5.7-8.2
	c5-7.3,15-9.1,22.3-4c7.3,5,9.1,15,4,22.3l-3.7,5.3l0.8,1.4C151.8,470.6,149.1,480.4,141.4,484.8z M181,554.5
	c-2.5,1.4-5.2,2.1-7.9,2.1c-5.6,0-11-2.9-13.9-8.1L146,525.2c-4.4-7.7-1.7-17.5,6-21.8c7.7-4.4,17.4-1.7,21.8,6l13.2,23.2
	C191.4,540.3,188.7,550.1,181,554.5z M191.9,381.9c-2.5,9.9-6.2,19.4-10.8,28.4c-2.9,5.5-8.4,8.6-14.2,8.6c-2.5,0-5-0.6-7.4-1.8
	c-7.8-4.1-10.9-13.7-6.8-21.6c3.5-6.8,6.3-14,8.2-21.5c2.2-8.6,10.9-13.7,19.5-11.5C188.9,364.6,194,373.3,191.9,381.9z
	 M180.9,340.6c-1.1,0.2-2.1,0.3-3.1,0.3c-7.5,0-14.2-5.3-15.7-12.9c-1.5-7.6-3.9-15-7-21.9c-3.6-8.1,0-17.5,8-21.2
	c8.1-3.6,17.5-0.1,21.2,8c4.1,9.2,7.2,18.9,9.2,28.9C195.2,330.5,189.5,338.9,180.9,340.6z M207.5,178c3.1-8.3,12.4-12.4,20.6-9.3
	c5.2,2,10.8,2.2,16.1,0.7c8.5-2.4,17.4,2.5,19.8,11c2.4,8.5-2.5,17.4-11,19.8c-5.2,1.5-10.5,2.3-15.9,2.3c-7,0-13.8-1.3-20.4-3.8
	C208.5,195.5,204.4,186.3,207.5,178z M265.9,540.6c-0.8,8.2-7.8,14.4-15.9,14.4c-0.5,0-1.1,0-1.6-0.1c-7.8-0.8-15.7-0.8-23.5,0
	c-8.8,0.9-16.6-5.5-17.5-14.3c-0.9-8.8,5.5-16.6,14.3-17.5c9.9-1,20-1,29.9,0C260.4,524,266.8,531.8,265.9,540.6z M279,162.3
	c-8.6-2-13.9-10.7-11.9-19.3c0.1-0.5,0.2-1,0.3-1.5l3.3-16.4c1.3-6.7,5.2-12.5,10.8-16.5c7.2-5.1,17.2-3.3,22.3,4
	c4.6,6.6,3.6,15.4-2.1,20.7l-2.9,14.4c-0.2,0.9-0.4,1.8-0.6,2.6c-1.7,7.4-8.3,12.3-15.6,12.3C281.5,162.8,280.3,162.6,279,162.3z
	 M335.6,579c-3.2,4-7.8,6.1-12.6,6.1c-3.5,0-7-1.1-9.9-3.5c-6.3-5-13-9.4-19.9-13c-7.8-4.1-10.8-13.8-6.6-21.6
	c4.1-7.8,13.8-10.8,21.6-6.6c8.6,4.6,17,10,24.8,16.2C339.9,562.1,341.1,572.1,335.6,579z M327.7,120c0-8.8,7.2-16,16-16h26.7
	c8.8,0,16,7.2,16,16s-7.2,16-16,16h-26.7C334.9,136,327.7,128.8,327.7,120z M395.7,575.3c-4.8,3.2-9.5,6.8-14,10.7l-5.3,4.6
	c-3,2.7-6.8,4-10.5,4c-4.5,0-8.9-1.9-12.1-5.5c-5.8-6.7-5.1-16.8,1.5-22.6l5.3-4.6c5.5-4.8,11.3-9.3,17.3-13.3
	c7.4-4.9,17.3-2.9,22.2,4.4C405,560.4,403,570.4,395.7,575.3z M408,167.4c-3.2-6.1-5.5-12.7-6.9-19.6l-2-10.2
	c-1.7-8.7,3.9-17.1,12.6-18.8c8.7-1.7,17.1,3.9,18.8,12.6l2,10.2c0.8,3.9,2.1,7.6,3.9,11.1c4.1,7.8,1,17.5-6.8,21.6
	c-2.4,1.2-4.9,1.8-7.4,1.8C416.5,176,410.9,172.9,408,167.4z M462.4,554.4c-7.8,0.1-15.7,0.9-23.4,2.5c-1.1,0.2-2.2,0.3-3.3,0.3
	c-7.4,0-14.1-5.2-15.6-12.7c-1.8-8.6,3.7-17.1,12.4-19c9.8-2.1,19.8-3.1,29.7-3.2c0,0,0.1,0,0.1,0c8.8,0,15.9,7.1,16,15.9
	C478.3,547.1,471.2,554.3,462.4,554.4z M493.2,193.8c-8.4,5.1-17.4,7.9-26.8,8.5c-0.3,0-0.7,0-1,0c-8.4,0-15.4-6.5-16-15
	c-0.6-8.8,6.1-16.4,15-17c4.2-0.3,8.4-1.6,12.3-4l5.1-3.1c7.6-4.6,17.4-2.2,22,5.4c4.6,7.6,2.2,17.4-5.4,22L493.2,193.8z
	 M546.8,537.8l-6.6,11.6c-4.6,8.2-13.4,13.3-22.9,13.3c-1.9,0-3.9-0.2-5.8-0.6l-0.1,0c-8.6-1.9-14.1-10.5-12.2-19.1
	c1.6-7.2,7.8-12.2,14.9-12.5l4.8-8.5c4.4-7.7,14.1-10.4,21.8-6C548.5,520.4,551.2,530.2,546.8,537.8z M582.9,474.4l-9.7,17
	c-2.9,5.2-8.4,8.1-13.9,8.1c-2.7,0-5.4-0.7-7.9-2.1c-7.7-4.4-10.4-14.1-6-21.8l8.8-15.5c-0.3-7.9,5.3-14.9,13.3-16.3
	c8.7-1.5,17,4.3,18.5,13c0.3,1.5,0.4,3,0.4,4.5C586.4,465.9,585.2,470.4,582.9,474.4z"/>
</svg>
