<?xml version="1.0" encoding="utf-8"?>
<!-- Generator: Adobe Illustrator 24.3.0, SVG Export Plug-In . SVG Version: 6.00 Build 0)  -->
<svg version="1.1" id="Capa_1" xmlns="http://www.w3.org/2000/svg" xmlns:xlink="http://www.w3.org/1999/xlink" x="0px" y="0px"
	 viewBox="0 0 700 700" style="enable-background:new 0 0 700 700;" xml:space="preserve">
<style type="text/css">
	.st0{fill:none;stroke:#000000;stroke-miterlimit:10;}
</style>
<g>
	<g>
		<path d="M621.8,44.6c-12.2-17.2-32-29.4-53.7-32c-38.9-5.3-76.2,22.5-84.6,62.1l-9.5,42.3c-2.6,11.4-0.8,23.3,6.1,32.8
			s16.4,16.4,27.8,19l56.3,12.2c3.4,0.8,6.1,0.8,9.5,0.8c17.2,0,33.8-10.3,40.7-26.7l19.8-47.6l0.8-2.6
			C638.2,85.1,633.7,62.6,621.8,44.6L621.8,44.6z"/>
		<path d="M559.4,192.5l-16.4-4.2c-34.6-9.5-65.8-6.1-90.7,9.5c-30.1,19-51.8,55.3-62.1,104.7L360,454.8c-0.8,5.3-5.3,7.7-10.3,7.7
			l-124.6-12.2c-48.4-2.6-91.8,9.5-118.5,35.4c-23.3,21.7-37.3,52.6-37.3,89.9v3.4c0,25.1,19.8,46.8,43.4,54.5v13
			c0,24.3,19.8,42.3,44.2,42.3h282.7c24.3,0,45-18.2,45-42.3v-57.1c6.9-9.5,12.2-20.6,15.6-32.8l91.8-307.8
			C596.7,222.6,582.7,199.3,559.4,192.5L559.4,192.5z M448.9,645.5c0,5.3-5.3,7.7-10.3,7.7h-283c-5.3,0-9.5-3.4-9.5-7.7V636h246.5
			c19.8,0,39.7-6.1,56.3-16.4L448.9,645.5z"/>
	</g>
</g>
<path d="M419.3,144.3L270.6,98.8l11.8,51.1C233.6,173.7,192,209.7,161.3,255c-35.1,51.7-53.7,112.2-53.7,175h52
	c0-95.9,52.1-182.6,134.9-227.9l11.1,48.2L419.3,144.3z"/>
<path class="st0" d="M564,349"/>
</svg>
