<?xml version="1.0" encoding="utf-8"?>
<!-- Generator: Adobe Illustrator 24.3.0, SVG Export Plug-In . SVG Version: 6.00 Build 0)  -->
<svg version="1.1" id="Capa_1" xmlns="http://www.w3.org/2000/svg" xmlns:xlink="http://www.w3.org/1999/xlink" x="0px" y="0px"
	 viewBox="0 0 700 700" style="enable-background:new 0 0 700 700;" xml:space="preserve">
<style type="text/css">
	.st0{fill:none;stroke:#000000;stroke-miterlimit:10;}
	.st1{fill-rule:evenodd;clip-rule:evenodd;}
</style>
<g>
	<g>
		<path d="M621.8,44.6c-12.2-17.2-32-29.4-53.7-32c-38.9-5.3-76.2,22.5-84.6,62.1l-9.5,42.3c-2.6,11.4-0.8,23.3,6.1,32.8
			s16.4,16.4,27.8,19l56.3,12.2c3.4,0.8,6.1,0.8,9.5,0.8c17.2,0,33.8-10.3,40.7-26.7l19.8-47.6l0.8-2.6
			C638.2,85.1,633.7,62.6,621.8,44.6L621.8,44.6z"/>
		<path d="M559.4,192.5l-16.4-4.2c-34.6-9.5-65.8-6.1-90.7,9.5c-30.1,19-51.8,55.3-62.1,104.7L360,454.8c-0.8,5.3-5.3,7.7-10.3,7.7
			l-124.6-12.2c-48.4-2.6-91.8,9.5-118.5,35.4c-23.3,21.7-37.3,52.6-37.3,89.9v3.4c0,25.1,19.8,46.8,43.4,54.5v13
			c0,24.3,19.8,42.3,44.2,42.3h282.7c24.3,0,45-18.2,45-42.3v-57.1c6.9-9.5,12.2-20.6,15.6-32.8l91.8-307.8
			C596.7,222.6,582.7,199.3,559.4,192.5L559.4,192.5z M448.9,645.5c0,5.3-5.3,7.7-10.3,7.7h-283c-5.3,0-9.5-3.4-9.5-7.7V636h246.5
			c19.8,0,39.7-6.1,56.3-16.4L448.9,645.5z"/>
	</g>
</g>
<path class="st0" d="M564,349"/>
<path class="st1" d="M111.4,302.7c-1.2-24.6,11.9-44.1,16.9-50.4H157L115.1,199l-41.9,53.2h30.5c-6.8,11.2-14.9,29.4-13.9,51.1
	c0.9,19,11.1,31.2,20,41.9c8.4,10.1,15.7,18.9,15.7,32.9c0,29.6-22.6,54.7-22.8,55l17.4,10.1c1.1-1.2,27-29.7,27-65.1
	c0-19.2-10.2-31.6-19.3-42.4C119.4,325.7,112.1,316.9,111.4,302.7z"/>
<path class="st1" d="M204.3,302.7c-1.2-24.6,11.9-44.1,16.9-50.4h28.7L208,199l-41.9,53.2h30.5c-6.8,11.2-14.9,29.4-13.9,51.1
	c0.9,19,11.1,31.2,20,41.9c8.4,10.1,15.7,18.9,15.7,32.9c0,29.6-22.6,54.7-22.8,55l17.4,10.1c1.1-1.2,27-29.7,27-65.1
	c0-19.2-10.2-31.6-19.3-42.4C212.3,325.7,205,316.9,204.3,302.7z"/>
<path class="st1" d="M297.3,302.7c-1.2-24.6,11.9-44.1,16.9-50.4h28.7L301,199l-41.9,53.2h30.5c-6.8,11.2-14.9,29.4-13.9,51.1
	c0.9,19,11.1,31.2,20,41.9c8.4,10.1,15.7,18.9,15.7,32.9c0,29.6-22.6,54.7-22.8,55l17.4,10.1c1.1-1.2,27-29.7,27-65.1
	c0-19.2-10.2-31.6-19.3-42.4C305.2,325.7,298,316.9,297.3,302.7z"/>
</svg>
