<?xml version="1.0" encoding="utf-8"?>
<!-- Generator: Adobe Illustrator 24.3.0, SVG Export Plug-In . SVG Version: 6.00 Build 0)  -->
<svg version="1.1" id="Capa_1" xmlns="http://www.w3.org/2000/svg" xmlns:xlink="http://www.w3.org/1999/xlink" x="0px" y="0px"
	 viewBox="0 0 150 150" style="enable-background:new 0 0 150 150;" xml:space="preserve">
<g>
	<g>
		<path d="M86.7,93.8h9.4c1.6,0,3.7-1.4,4.3-2.9l2.6-6.5H86.7V93.8z"/>
		<path d="M49.7,90.9c0.6,1.5,2.6,2.9,4.3,2.9h9.4v-9.4H47.1L49.7,90.9z"/>
		<rect x="53.9" y="72.7" width="42.2" height="7"/>
		<path d="M18.8,89.1c0,2.6,2.1,4.7,4.7,4.7v-9.4C20.9,84.4,18.8,86.5,18.8,89.1z"/>
		<rect x="68" y="84.4" width="14.1" height="9.4"/>
		<path d="M149.3,58l-3.4-11.9c-0.6-2.3-2.9-4-5.2-4h-4.7c-3.9,0-7,3.2-7,7v4.7H18.8v-4.7c0-3.9-3.2-7-7-7H7c-1,0-2,0.7-2.3,1.7
			L0.1,60.3C0,60.5,0,60.7,0,60.9v9.4h35.2c3.5,0,7.3,2.6,8.6,5.8l1.4,3.5h4v-9.4c0-1.3,1-2.3,2.3-2.3h46.9c1.3,0,2.3,1,2.3,2.3v9.4
			h4l1.4-3.5c1.3-3.3,5.1-5.8,8.6-5.8H150v-7C150,61.8,149.7,59.5,149.3,58z"/>
		<path d="M121.9,93.8v-9.4c-2.6,0-4.7,2.1-4.7,4.7S119.3,93.8,121.9,93.8z"/>
		<path d="M110.6,77.9l-5.9,14.7c-1.3,3.3-5.1,5.8-8.6,5.8H53.9c-3.5,0-7.3-2.6-8.6-5.8l-5.9-14.7c-0.6-1.5-2.6-2.9-4.3-2.9H0
			c0,1.6,0.4,3.8,0.9,5.3l6.4,19.2c1.5,4.6,6.6,8.3,11.5,8.3h112.5c4.9,0,9.9-3.6,11.5-8.3l6.4-19.2c0.5-1.5,0.9-3.8,0.9-5.3h-35.2
			C113.2,75,111.2,76.4,110.6,77.9z M28.1,98.4h-4.7c-5.2,0-9.4-4.2-9.4-9.4s4.2-9.4,9.4-9.4h4.7c5.2,0,9.4,4.2,9.4,9.4
			S33.3,98.4,28.1,98.4z M121.9,79.7h4.7c5.2,0,9.4,4.2,9.4,9.4s-4.2,9.4-9.4,9.4h-4.7c-5.2,0-9.4-4.2-9.4-9.4
			S116.7,79.7,121.9,79.7z"/>
		<path d="M131.2,89.1c0-2.6-2.1-4.7-4.7-4.7v9.4C129.1,93.8,131.2,91.6,131.2,89.1z"/>
		<path d="M28.1,84.4v9.4c2.6,0,4.7-2.1,4.7-4.7S30.7,84.4,28.1,84.4z"/>
	</g>
</g>
</svg>
