<?xml version="1.0" encoding="utf-8"?>
<!-- Generator: Adobe Illustrator 24.3.0, SVG Export Plug-In . SVG Version: 6.00 Build 0)  -->
<svg version="1.1" id="Capa_1" xmlns="http://www.w3.org/2000/svg" xmlns:xlink="http://www.w3.org/1999/xlink" x="0px" y="0px"
	 viewBox="0 0 150 150" style="enable-background:new 0 0 150 150;" xml:space="preserve">
<style type="text/css">
	.st0{fill-rule:evenodd;clip-rule:evenodd;}
</style>
<g>
	<desc>Created with Sketch.</desc>
	<g>
		<g transform="translate(-959.000000, -470.000000)">
			<g transform="translate(959.000000, 470.000000)">
				<path class="st0" d="M75,57.9c-9.4,0-17.1,7.7-17.1,17.1S65.6,92.1,75,92.1S92.1,84.4,92.1,75S84.4,57.9,75,57.9"/>
				<path class="st0" d="M75,96.9c-12.1,0-21.9-9.8-21.9-21.9S62.9,53.1,75,53.1S96.9,62.9,96.9,75S87.1,96.9,75,96.9 M75,26.3
					c-26.9,0-48.7,21.9-48.7,48.7s21.9,48.7,48.7,48.7s48.7-21.9,48.7-48.7S101.9,26.3,75,26.3"/>
				<path class="st0" d="M133.5,14.1c0-1.3,1.1-2.4,2.4-2.4s2.4,1.1,2.4,2.4s-1.1,2.4-2.4,2.4S133.5,15.4,133.5,14.1 M135.9,133.5
					c1.3,0,2.4,1.1,2.4,2.4s-1.1,2.4-2.4,2.4s-2.4-1.1-2.4-2.4S134.6,133.5,135.9,133.5 M75,128.6c-29.6,0-53.6-24-53.6-53.6
					s24-53.6,53.6-53.6s53.6,24,53.6,53.6S104.6,128.6,75,128.6 M119.8,119.8c-1,1-2.5,1-3.4,0c-1-1-1-2.5,0-3.4c1-1,2.5-1,3.4,0
					C120.8,117.3,120.8,118.8,119.8,119.8 M33.6,119.8c-1,1-2.5,1-3.4,0c-1-1-1-2.5,0-3.4c1-1,2.5-1,3.4,0
					C34.6,117.3,34.6,118.8,33.6,119.8 M14.1,16.5c-1.3,0-2.4-1.1-2.4-2.4s1.1-2.4,2.4-2.4s2.4,1.1,2.4,2.4S15.4,16.5,14.1,16.5
					 M14.1,138.4c-1.3,0-2.4-1.1-2.4-2.4s1.1-2.4,2.4-2.4s2.4,1.1,2.4,2.4S15.4,138.4,14.1,138.4 M30.2,30.2c1-1,2.5-1,3.4,0
					c1,1,1,2.5,0,3.4c-1,1-2.5,1-3.4,0C29.2,32.7,29.2,31.2,30.2,30.2 M116.4,30.2c1-1,2.5-1,3.4,0c1,1,1,2.5,0,3.4
					c-1,1-2.5,1-3.4,0C115.4,32.7,115.4,31.2,116.4,30.2 M134.6,32.6l10-10c2.3-2.3,3.6-5.4,3.6-8.6c0-3.3-1.3-6.3-3.6-8.6
					c-2.3-2.3-5.4-3.6-8.6-3.6c-3.3,0-6.3,1.3-8.6,3.6l-10,10C104.9,6.6,90.3,1.9,75,1.9S45.1,6.6,32.6,15.4l-10-10
					c-2.3-2.3-5.4-3.6-8.6-3.6S7.8,3.2,5.5,5.5c-2.3,2.3-3.6,5.4-3.6,8.6c0,3.3,1.3,6.3,3.6,8.6l10,10C6.6,45.1,1.9,59.7,1.9,75
					s4.7,29.9,13.5,42.4l-10,10c-2.3,2.3-3.6,5.4-3.6,8.6c0,3.3,1.3,6.3,3.6,8.6c2.3,2.3,5.4,3.6,8.6,3.6s6.3-1.3,8.6-3.6l10-10
					c12.4,8.9,27,13.5,42.4,13.5s29.9-4.7,42.4-13.5l10,10c2.3,2.3,5.4,3.6,8.6,3.6c3.3,0,6.3-1.3,8.6-3.6c2.3-2.3,3.6-5.4,3.6-8.6
					c0-3.3-1.3-6.3-3.6-8.6l-10-10c8.9-12.4,13.5-27,13.5-42.4S143.4,45.1,134.6,32.6"/>
			</g>
		</g>
	</g>
</g>
</svg>
