<?xml version="1.0" encoding="utf-8"?>
<!-- Generator: Adobe Illustrator 24.3.0, SVG Export Plug-In . SVG Version: 6.00 Build 0)  -->
<svg version="1.1" id="Capa_1" xmlns="http://www.w3.org/2000/svg" xmlns:xlink="http://www.w3.org/1999/xlink" x="0px" y="0px"
	 viewBox="0 0 700 700" style="enable-background:new 0 0 700 700;" xml:space="preserve">
<style type="text/css">
	.st0{fill-rule:evenodd;clip-rule:evenodd;}
</style>
<g>
	<path class="st0" d="M488,520V206.7c0-12.5-5-24.4-13.8-33.2c-8.8-8.8-20.8-13.8-33.2-13.8H65c-12.5,0-24.4,5-33.2,13.8
		C23,182.2,18,194.2,18,206.7V520c0,12.5,5,24.4,13.8,33.2C40.6,562.1,52.5,567,65,567h376c12.5,0,24.4-5,33.2-13.8
		C483,544.4,488,532.5,488,520z"/>
	<path class="st0" d="M519.3,438.5V288.1l131.9-94.2c4.8-3.4,11.1-3.9,16.3-1.2c5.2,2.7,8.5,8.1,8.5,13.9V520
		c0,5.9-3.3,11.2-8.5,13.9c-5.2,2.7-11.5,2.2-16.3-1.2L519.3,438.5z"/>
</g>
</svg>
