<?xml version="1.0" encoding="utf-8"?>
<!-- Generator: Adobe Illustrator 24.3.0, SVG Export Plug-In . SVG Version: 6.00 Build 0)  -->
<svg version="1.1" id="Capa_1" xmlns="http://www.w3.org/2000/svg" xmlns:xlink="http://www.w3.org/1999/xlink" x="0px" y="0px"
	 viewBox="0 0 700 700" style="enable-background:new 0 0 700 700;" xml:space="preserve">
<g>
	<path d="M148.8,456.6c-16.9,18.4-18.7,44.3-4.1,59.1l44.8,44.9c14.6,14.7,40.4,13,58.6-4.1l25.8-24.2l-101-101.6L148.8,456.6z"/>
	<path d="M182.1,420.7L283.8,523l64.5-60.2L242,355.9L182.1,420.7z"/>
	<path d="M342,229.4c4.7,0,9.1-1.9,12.4-5.2c6.9-6.9,6.9-18.1,0-25.2c-3.2-3.2-7.8-5.2-12.4-5.2s-9.1,1.9-12.4,5.2
		c-6.9,6.9-6.9,18.1,0,25.2C332.9,227.6,337.4,229.4,342,229.4z"/>
	<path d="M394.1,174.9c-14.9-15-35-23.6-56.3-23.4c-0.6,0-1.2,0-1.8,0c-21.8,0.4-42.4,9.7-56.8,25.9L36.9,442.9
		C21.1,460.3,12.6,483,13,506.4c0.4,23.4,10,45.8,26.5,62.4l96.9,97.5l0,0c16.3,16.6,38.6,26.2,62,26.7c23.3,0.4,45.9-8.1,63-24
		l264-243.7c16.1-14.9,25.3-35.5,25.8-57.3s-8-42.9-23.3-58.3L394.1,174.9z M318.1,187.9c6.3-6.3,14.9-9.9,23.9-9.9
		s17.5,3.5,23.9,9.9c6.3,6.3,9.9,15,9.9,23.9s-3.5,17.5-9.9,23.9c-6.3,6.3-14.9,9.9-23.9,9.9s-17.5-3.5-23.9-9.9
		c-6.3-6.3-9.9-15-9.9-23.9C308.4,202.7,312,194.2,318.1,187.9L318.1,187.9z M422,433.7L255,589.8c-14.9,13.8-33.1,20.9-50.5,20.9
		c-15.3,0.3-30-5.7-40.8-16.5l-52.6-52.9c-23.3-23.4-21.4-63.8,4.4-91.7l155.1-167.9c13-14,30.6-22.2,48.3-22.5
		c14.1-0.4,28,4.9,38,14.9l72.7,73l0,0c9.9,10.2,15.2,24,14.7,38.1C444.1,403,436,420.7,422,433.7L422,433.7z"/>
	<path d="M334.2,307.7c-5.7-5.6-13.5-8.7-21.6-8.5h-0.7c-11.3,0.1-22.7,5.6-31.2,14.9l-29.3,31.8l107.1,107.6l31.5-29.5
		c9.1-8.5,14.6-20,14.7-31.5l0,0c0.3-8.4-2.8-16.5-8.5-22.5L334.2,307.7z"/>
	<g>
		<path d="M609,291.4c-10.3-10.3-10.3-27.1,0-37.6c42.7-42.7,42.7-112.4,0-155.2c-42.7-42.7-112.4-42.7-155.2,0
			c-10.3,10.3-27.1,10.3-37.6,0c-10.5-10.3-10.3-27.1,0-37.6c63.5-63.5,166.7-63.5,230.2,0s63.5,166.7,0,230.2
			C636.2,301.7,619.4,301.7,609,291.4z"/>
	</g>
	<g>
		<path d="M536.2,265.3c-10.3-10.3-10.3-27.1,0-37.6c15.5-15.5,15.5-40.8,0-56.3c-15.5-15.5-40.8-15.5-56.3,0
			c-10.3,10.3-27.1,10.3-37.6,0c-10.3-10.3-10.3-27.1,0-37.6c36.2-36.2,95-36.2,131.2,0c36.2,36.2,36.2,95,0,131.2
			C563.3,275.6,546.6,275.6,536.2,265.3z"/>
	</g>
</g>
</svg>
