<?xml version="1.0" encoding="utf-8"?>
<!-- Generator: Adobe Illustrator 24.3.0, SVG Export Plug-In . SVG Version: 6.00 Build 0)  -->
<svg version="1.1" id="Capa_1" xmlns="http://www.w3.org/2000/svg" xmlns:xlink="http://www.w3.org/1999/xlink" x="0px" y="0px"
	 viewBox="0 0 150 150" style="enable-background:new 0 0 150 150;" xml:space="preserve">
<style type="text/css">
	.st0{fill:none;stroke:#000000;stroke-width:2;stroke-linecap:round;stroke-linejoin:round;}
</style>
<desc>Created with Sketch.</desc>
<g>
	<g transform="translate(-720.000000, -830.000000)">
		<g transform="translate(721.000000, 831.000000)">
			<path class="st0" d="M-1,58.5h5.2"/>
			<path class="st0" d="M-1,48.1h5.2"/>
			<path class="st0" d="M-1,68.8h5.2"/>
			<path class="st0" d="M14.5,48.1c0-8.6,6.9-15.5,15.5-15.5h7.8c4.3,0,7.8-3.5,7.8-7.8s-3.5-7.8-7.8-7.8H19.7
				C8.3,17.1-1,26.4-1,37.8V105c0,14.2,11.6,25.9,25.9,25.9h12.9c4.3,0,7.8-3.5,7.8-7.8s-3.5-7.8-7.8-7.8H30
				c-8.6,0-15.5-6.9-15.5-15.5V48.1z"/>
			<path class="st0" d="M-1,89.5h5.2"/>
			<path class="st0" d="M-1,79.2h5.2"/>
			<path class="st0" d="M-1,99.9h5.2"/>
			<path class="st0" d="M143.8,58.5h5.2"/>
			<path class="st0" d="M143.8,48.1h5.2"/>
			<path class="st0" d="M143.8,68.8h5.2"/>
			<path class="st0" d="M143.8,89.5h5.2"/>
			<path class="st0" d="M143.8,99.9h5.2"/>
			<path class="st0" d="M143.8,79.2h5.2"/>
			<polygon class="st0" points="35.2,105 112.8,105 112.8,43 35.2,43 			"/>
			<polyline class="st0" points="112.8,74 99.9,74 89.5,55.9 74,86.9 61.1,61.1 48.1,74 35.2,74 			"/>
			<path class="st0" d="M133.5,48.1c0-8.6-6.9-15.5-15.5-15.5h-7.8c-4.3,0-7.8-3.5-7.8-7.8s3.5-7.8,7.8-7.8h18.1
				c11.4,0,20.7,9.3,20.7,20.7v72.4c0,11.4-9.3,20.7-20.7,20.7h-18.1c-4.3,0-7.8-3.5-7.8-7.8s3.5-7.8,7.8-7.8h7.8
				c8.6,0,15.5-6.9,15.5-15.5V48.1z"/>
			<path class="st0" d="M22.3,63.7h5.2"/>
			<path class="st0" d="M22.3,74h5.2"/>
			<path class="st0" d="M22.3,84.3h5.2"/>
			<path class="st0" d="M61.1,115.4h25.9"/>
			<path class="st0" d="M102.9,125.7c-0.3-0.8-0.5-1.7-0.5-2.6c0-4.3,3.5-7.8,7.8-7.8h7.8c8.6,0,15.5-6.9,15.5-15.5V48.1
				c0-8.6-6.9-15.5-15.5-15.5h-7.8c-4.3,0-7.8-3.5-7.8-7.8c0-0.9,0.2-1.8,0.5-2.6H45.1c0.3,0.8,0.5,1.7,0.5,2.6
				c0,4.3-3.5,7.8-7.8,7.8H30c-8.6,0-15.5,6.9-15.5,15.5v51.7c0,8.6,6.9,15.5,15.5,15.5h7.8c4.3,0,7.8,3.5,7.8,7.8
				c0,0.9-0.2,1.8-0.5,2.6H102.9z"/>
		</g>
	</g>
</g>
</svg>
