<?xml version="1.0" encoding="utf-8"?>
<!-- Generator: Adobe Illustrator 24.3.0, SVG Export Plug-In . SVG Version: 6.00 Build 0)  -->
<svg version="1.1" id="Capa_1" xmlns="http://www.w3.org/2000/svg" xmlns:xlink="http://www.w3.org/1999/xlink" x="0px" y="0px"
	 viewBox="0 0 700 700" style="enable-background:new 0 0 700 700;" xml:space="preserve">
<g>
	<path d="M547.4,224.2c-3.6,1-7.2,2.1-10.9,3.1c-4.3,1.1-8.7,2.1-13,3.2c-3.8,0.9-7.5,1.8-11.3,2.6c-4.5,1-9.1,1.8-13.7,2.7
		c-3.9,0.7-7.7,1.5-11.6,2.2c-4.7,0.8-9.5,1.5-14.3,2.3c-3.9,0.6-7.8,1.3-11.7,1.8c-5,0.7-10.1,1.3-15.2,1.8
		c-3.9,0.5-7.7,1-11.6,1.4c-5.4,0.5-10.9,1-16.3,1.4c-3.7,0.3-7.4,0.7-11.1,0.9c-6,0.4-12.2,0.7-18.3,0.9c-3.3,0.1-6.5,0.4-9.7,0.5
		c-9.4,0.3-18.9,0.5-28.5,0.5s-19.1-0.2-28.5-0.5c-3.3-0.1-6.5-0.3-9.7-0.5c-6.1-0.3-12.3-0.5-18.3-0.9c-3.8-0.3-7.4-0.6-11.1-0.9
		c-5.5-0.4-11-0.8-16.4-1.4c-3.9-0.4-7.7-0.9-11.6-1.4c-5.1-0.6-10.2-1.2-15.2-1.8c-4-0.5-7.8-1.2-11.7-1.8
		c-4.8-0.7-9.6-1.5-14.3-2.3c-3.9-0.7-7.7-1.5-11.6-2.2c-4.6-0.9-9.2-1.8-13.7-2.7c-3.8-0.8-7.5-1.8-11.3-2.6c-4.4-1-8.8-2.1-13-3.2
		c-3.7-1-7.3-2-10.9-3.1c-3.1-0.9-6.3-1.7-9.4-2.6c-14.7,23.6-25.1,49-31,75.7c2.1,1.6,4.2,3.3,6.3,4.9c2.4,1.8,4.8,3.6,7.3,5.6
		c2.9,2.3,5.8,4.7,8.6,7.1c2.3,1.9,4.7,3.8,7,5.8c2.9,2.5,5.8,5.1,8.7,7.7c2.2,2,4.5,4,6.7,6c3,2.7,5.9,5.6,8.8,8.4
		c2.1,2.1,4.2,4.1,6.3,6.2c3,3,6,6.2,9,9.3c1.9,2,3.9,4,5.8,6.1c3.1,3.4,6.2,6.8,9.2,10.3c1.7,2,3.5,3.9,5.2,5.9
		c3.3,3.8,6.6,7.8,9.8,11.7c1.4,1.7,2.8,3.3,4.2,5.1c4.6,5.7,9.1,11.5,13.5,17.4c5.8,7.7,11.3,15.5,16.5,23.3
		c1.7,2.5,3.2,4.9,4.8,7.4c3.5,5.3,7,10.6,10.2,15.9c1.8,3,3.5,6.1,5.2,9.1c2.7,4.7,5.5,9.5,8.1,14.2c1.8,3.3,3.3,6.5,5,9.7
		c2.3,4.4,4.6,8.9,6.6,13.3c1.6,3.4,2.9,6.7,4.4,10c1.8,4.2,3.7,8.4,5.4,12.6c1.3,3.4,2.5,6.7,3.7,10c1.5,4,2.9,8,4.2,12
		c1.1,3.3,1.9,6.5,2.8,9.8c1.1,3.8,2.2,7.6,3,11.4c0.7,3.2,1.3,6.3,1.9,9.4c0.5,2.6,1.2,5.2,1.6,7.7c24.9,4,50.9,4,75.8,0
		c0.4-2.5,1.1-5.2,1.6-7.7c0.6-3.1,1.2-6.2,1.9-9.4c0.9-3.7,2-7.6,3-11.4c0.9-3.2,1.8-6.5,2.8-9.8c1.3-3.9,2.7-8,4.2-12
		c1.2-3.3,2.3-6.6,3.7-10c1.6-4.2,3.5-8.4,5.4-12.6c1.5-3.3,2.8-6.6,4.4-10c2.1-4.4,4.4-8.8,6.6-13.3c1.7-3.3,3.2-6.5,5-9.7
		c2.5-4.7,5.3-9.5,8.1-14.2c1.8-3,3.4-6,5.2-9c3.2-5.4,6.8-10.7,10.3-16c1.6-2.4,3.1-4.9,4.7-7.3c5.3-7.8,10.8-15.5,16.5-23.3
		c4.4-5.9,8.9-11.7,13.5-17.4c1.3-1.7,2.7-3.3,4.1-4.9c3.3-4,6.5-8,9.9-11.8c1.7-2,3.5-3.9,5.2-5.9c3.1-3.4,6.1-6.9,9.2-10.2
		c1.9-2.1,3.9-4.1,5.8-6.1c3-3.1,5.9-6.2,9-9.3c2.1-2.1,4.2-4.1,6.4-6.2c2.9-2.8,5.8-5.7,8.8-8.4c2.2-2.1,4.5-4.1,6.7-6.1
		c2.9-2.6,5.8-5.2,8.7-7.7c2.3-2,4.7-3.9,7-5.8c2.9-2.4,5.7-4.8,8.6-7.1c2.4-1.9,4.8-3.7,7.3-5.6c2.1-1.6,4.2-3.3,6.3-4.9
		c-5.9-26.7-16.3-52.2-31-75.7C553.7,222.6,550.5,223.4,547.4,224.2L547.4,224.2z M207.7,325.4c-16.6,0-30.1-13.5-30.1-30.1
		c0-16.6,13.5-30.1,30.1-30.1c16.6,0,30.1,13.5,30.1,30.1C237.8,311.9,224.3,325.4,207.7,325.4z M382.8,456.7h-65.7
		c-4.5,0-8.2-3.7-8.2-8.2s3.7-8.2,8.2-8.2h65.7c4.5,0,8.2,3.7,8.2,8.2 M371.9,391.1h-43.8c-22.6,0-41-18.4-41-41s18.4-41,41-41h43.8
		c22.6,0,41,18.4,41,41S394.5,391.1,371.9,391.1z M492.3,325.4c-16.6,0-30.1-13.5-30.1-30.1c0-16.6,13.5-30.1,30.1-30.1
		c16.6,0,30.1,13.5,30.1,30.1C522.4,311.9,508.9,325.4,492.3,325.4z"/>
	<path d="M668.8,261L668.8,261c-7.9-28.6-19.8-56-35.2-81.5C573.1,79,467.1,19,350,19S126.9,79,66.4,179.4
		c-15.5,25.5-27.3,53-35.2,81.6C23.1,290,19,320,19,350c0,153.7,108.7,289.6,258.5,323.1c47.6,10.5,97.4,10.5,145,0
		C572.3,639.6,681,503.7,681,350C681,320,676.9,290,668.8,261L668.8,261z M396.7,605.6C396.7,605.6,396.7,605.6,396.7,605.6
		c-15.3,2.9-31,4.3-46.7,4.3s-31.4-1.4-46.7-4.3c0,0,0,0,0,0C179.7,583.2,90.1,475.8,90.1,350c0-17.1,1.7-34.2,5-50.7c0,0,0,0,0,0
		c6.4-32.7,19.1-63.6,37.7-91.9v0c0,0,0,0,0,0l0,0C181,134,262.2,90.1,350,90.1S519,134,567.2,207.4c0,0,0,0,0,0c0,0,0,0,0,0v0
		c18.6,28.3,31.3,59.2,37.7,91.9c0,0,0,0,0,0c3.3,16.5,5,33.5,5,50.7C609.9,475.8,520.3,583.2,396.7,605.6L396.7,605.6z"/>
</g>
</svg>
