<?xml version="1.0" encoding="utf-8"?>
<!-- Generator: Adobe Illustrator 24.3.0, SVG Export Plug-In . SVG Version: 6.00 Build 0)  -->
<svg version="1.1" id="Capa_1" xmlns="http://www.w3.org/2000/svg" xmlns:xlink="http://www.w3.org/1999/xlink" x="0px" y="0px"
	 viewBox="0 0 700 700" style="enable-background:new 0 0 700 700;" xml:space="preserve">
<g>
	<path d="M99.4,437.5l88.1,242.9c1.8,5.4,7,9,12.7,9h136.3V269.6l-231.9,152C99.4,425.2,97.2,431.7,99.4,437.5L99.4,437.5z"/>
	<path d="M512.7,680.5l88.1-242.9c2-5.9-0.2-12.6-5.4-15.9l-231.9-152v419.9H500C505.7,689.5,510.7,685.8,512.7,680.5L512.7,680.5z"
		/>
	<path d="M372.2,242.9l165.6,108.6V215.9c0-7.5-6.2-13.6-13.6-13.6H175.7c-7.5,0-13.6,6-13.6,13.6v135.6L327.5,243
		c6.5-4.4,14.2-6.7,22.4-6.7C357.8,236.3,365.7,238.5,372.2,242.9L372.2,242.9z"/>
	<path d="M222.2,125v50.1h255.6V125c0-7.5-6.2-13.6-13.6-13.6H235.8C228.3,111.4,222.2,117.5,222.2,125L222.2,125z"/>
	<path d="M418.9,10.5H281.2c-7.5,0-13.6,6-13.6,13.6v60.1h164.9V24.1C432.5,16.5,426.3,10.5,418.9,10.5L418.9,10.5z"/>
</g>
</svg>
