<?xml version="1.0" encoding="utf-8"?>
<!-- Generator: Adobe Illustrator 24.3.0, SVG Export Plug-In . SVG Version: 6.00 Build 0)  -->
<svg version="1.1" id="Capa_1" xmlns="http://www.w3.org/2000/svg" xmlns:xlink="http://www.w3.org/1999/xlink" x="0px" y="0px"
	 viewBox="0 0 700 700" style="enable-background:new 0 0 700 700;" xml:space="preserve">
<style type="text/css">
	.st0{fill-rule:evenodd;clip-rule:evenodd;}
</style>
<g>
	<path class="st0" d="M159.6,677.7h24.5c76.2-62.5,135.3-162,64.9-213.3s-67.2-87.4-67.2-87.4H77.4c0,42.4,30.1,86.5,78.6,113.4
		C257,546.3,205.4,636.3,159.6,677.7z M536.6,677.7h24.5c76.2-62.5,135.3-162,64.9-213.3s-67.2-87.4-67.2-87.4H454.4
		c0,42.4,30.1,86.5,78.6,113.4C634,546.3,582.4,636.3,536.6,677.7z M200.2,27.1c-9.9,1.3-15.2,6.9-17.6,9.9l-45.5,55.9l-52.8,0
		c-5.9,0-12.2,4.9-13.8,10.9l-4.8,17.9c-0.6,2.4,1,3.4,3.2,4.4L99,139.8l-12.2,15c-7.4,9.4-11.1,22-10.8,37.8v150.3
		c0,6.1,5,11.2,11.2,11.2h81.7c6.1,0,11.2-5,11.2-11.2V328h272.2v14.9c0,6.1,5,11.2,11.2,11.2h81.7c6.1,0,11.2-5,11.2-11.2V192.6
		c0.3-15.8-3.4-28.4-10.8-37.8l-12.2-15l30-13.7c2.2-1,3.8-2,3.2-4.4l-4.8-17.9c-1.6-6-7.8-10.9-13.8-10.9h-52.8L449.7,37
		c-2.4-3-7.7-8.6-17.6-9.9C332.6,20.9,299.7,20.6,200.2,27.1L200.2,27.1z M147,130.6c-4.7,0.7-5.3-2.6-3.5-5l55.5-69.2
		c2.4-3,5.1-4.6,9-5.1c98.6-6.7,117.9-5.9,216.1,0c3.9,0.5,6.6,2.1,9,5.1l55.5,69.2c1.7,2.5,1.2,5.7-3.5,5
		C346.1,123.5,286.1,122.8,147,130.6L147,130.6z"/>
</g>
</svg>
