<?xml version="1.0" encoding="utf-8"?>
<!-- Generator: Adobe Illustrator 24.3.0, SVG Export Plug-In . SVG Version: 6.00 Build 0)  -->
<svg version="1.1" id="Capa_1" xmlns="http://www.w3.org/2000/svg" xmlns:xlink="http://www.w3.org/1999/xlink" x="0px" y="0px"
	 viewBox="0 0 150 150" style="enable-background:new 0 0 150 150;" xml:space="preserve">
<g>
	<g>
		<path d="M75,7.2C34.8,7.2,2.1,39.9,2.1,80c0,25.4,13.6,49.4,35.4,62.5c0.3,0.2,0.6,0.3,1,0.3h72.9c0.4,0,0.7-0.1,1-0.3
			c4.1-2.5,8-5.3,11.5-8.5c15.2-13.9,23.9-33.5,23.9-54C147.9,39.6,114.8,7.2,75,7.2z M118,120.9l-6.8-6.8l-2.7,2.7l5.5,5.5H36
			l5.5-5.5l-2.7-2.7l-6.8,6.8c-10.1-10.8-15.5-24.5-15.9-38.4h9.6v-3.9h-9.6c0.4-13.8,5.7-27.6,15.9-38.4l6.8,6.8l2.7-2.7l-6.8-6.8
			c13.5-12.6,34.4-21,53.8-15.2c10.9,3.3,19.9,8.6,26.9,15.2l-6.8,6.8l2.7,2.7l6.8-6.8c10.1,10.8,15.4,24.5,15.9,38.4h-9.6v3.9h9.6
			C133.5,96.4,128.1,110.1,118,120.9z"/>
		<rect x="73.1" y="21.6" width="3.9" height="9.7"/>
		<path d="M88.4,87.7c0,7.4-6,13.4-13.5,13.4c-3.3,0-6.7-1.2-9.7-3.5c-0.1-0.1-0.3-0.3-0.4-0.4c-3.1-4.2-4.1-8.9-2.9-13.2
			c1-3.6,3.6-6.7,6.9-8.3l4.1-33.1c0.1-1,1-1.7,1.9-1.7c1,0,1.8,0.7,1.9,1.7L81,75.7C85.6,78,88.4,82.6,88.4,87.7z"/>
		<rect x="56.3" y="110.7" width="37.3" height="3.9"/>
	</g>
</g>
</svg>
