<?xml version="1.0" encoding="utf-8"?>
<!-- Generator: Adobe Illustrator 24.3.0, SVG Export Plug-In . SVG Version: 6.00 Build 0)  -->
<svg version="1.1" id="Capa_1" xmlns="http://www.w3.org/2000/svg" xmlns:xlink="http://www.w3.org/1999/xlink" x="0px" y="0px"
	 viewBox="0 0 150 150" style="enable-background:new 0 0 150 150;" xml:space="preserve">
<g>
	<path d="M149.9,108.9l-2-9.9c-0.1-0.6-0.7-1-1.3-0.8c-0.6,0.1-1,0.7-0.8,1.3l2,9.9c0.2,1-0.1,2-0.7,2.7s-1.6,1.2-2.5,1.2H5.4
		c-1,0-1.9-0.4-2.5-1.2s-0.9-1.8-0.7-2.7l11.1-55.9c1.9-9.7,10.5-16.7,20.4-16.7h29.2l2.7,7.3c0.3,0.8,1.1,1.4,2,1.4h14.9
		c0.9,0,1.7-0.6,2-1.4l2.7-7.3h29.2c9.9,0,18.4,7,20.4,16.7l7.7,38.9c0.1,0.6,0.7,1,1.3,0.8c0.6-0.1,1-0.7,0.8-1.3L138.8,53
		c-2.1-10.7-11.6-18.5-22.5-18.5H33.7c-10.9,0-20.4,7.8-22.5,18.5L0.1,108.9c-0.3,1.6,0.1,3.2,1.1,4.5c1,1.3,2.6,2,4.2,2h139.1
		c1.6,0,3.2-0.7,4.2-2C149.8,112.2,150.2,110.5,149.9,108.9z"/>
	<path d="M116.3,41H91.1c-0.9,0-1.7,0.6-2,1.4l-1.5,4c-0.6,1.7-2.2,2.8-4,2.8h-17c-1.8,0-3.4-1.1-4-2.8l-1.5-4
		c-0.3-0.8-1.1-1.4-2-1.4H33.7c-7.8,0-14.6,5.6-16.1,13.3L8.9,98c-0.8,4,2.3,7.7,6.3,7.7h119.6c4.1,0,7.1-3.7,6.3-7.7l-8.7-43.7
		C130.9,46.6,124.2,41,116.3,41z M43,86c-0.3,0-0.7-0.2-0.9-0.5c-0.3-0.5-0.2-1.2,0.3-1.5l36-25c0.5-0.3,1.2-0.2,1.5,0.3
		c0.3,0.5,0.2,1.2-0.3,1.5l-36,25C43.4,85.9,43.2,86,43,86z M106.7,64L56.4,99c-0.2,0.1-0.4,0.2-0.6,0.2c-0.3,0-0.7-0.2-0.9-0.5
		c-0.3-0.5-0.2-1.2,0.3-1.5l50.3-35c0.5-0.3,1.2-0.2,1.5,0.3C107.3,63,107.2,63.7,106.7,64z"/>
	<path d="M62,28.3c0.2,0.4,0.6,0.6,1,0.6c0.2,0,0.3,0,0.5-0.1c0.5-0.3,0.7-0.9,0.5-1.5l-3.7-7.1c-0.3-0.5-0.9-0.7-1.5-0.5
		c-0.5,0.3-0.7,0.9-0.5,1.5L62,28.3z"/>
	<path d="M86.9,28.7c0.1,0.1,0.3,0.1,0.4,0.1c0.4,0,0.8-0.2,1-0.6l3.4-7.3c0.2-0.5,0-1.2-0.5-1.4c-0.5-0.2-1.2,0-1.4,0.5l-3.4,7.3
		C86.2,27.8,86.4,28.4,86.9,28.7z"/>
	<path d="M88,121.7c-0.3-0.5-0.9-0.7-1.5-0.5c-0.5,0.3-0.7,0.9-0.5,1.5l3.7,7.1c0.2,0.4,0.6,0.6,1,0.6c0.2,0,0.3,0,0.5-0.1
		c0.5-0.3,0.7-0.9,0.5-1.5L88,121.7z"/>
	<path d="M63.1,121.3c-0.5-0.2-1.2,0-1.4,0.5l-3.4,7.3c-0.2,0.5,0,1.2,0.5,1.4c0.1,0.1,0.3,0.1,0.4,0.1c0.4,0,0.8-0.2,1-0.6l3.4-7.3
		C63.8,122.2,63.6,121.6,63.1,121.3z"/>
</g>
</svg>
