<?xml version="1.0" encoding="utf-8"?>
<!-- Generator: Adobe Illustrator 24.3.0, SVG Export Plug-In . SVG Version: 6.00 Build 0)  -->
<svg version="1.1" id="Capa_1" xmlns="http://www.w3.org/2000/svg" xmlns:xlink="http://www.w3.org/1999/xlink" x="0px" y="0px"
	 viewBox="0 0 150 150" style="enable-background:new 0 0 150 150;" xml:space="preserve">
<style type="text/css">
	.st0{fill-rule:evenodd;clip-rule:evenodd;}
</style>
<g>
	<path class="st0" d="M6.6,121.4c-1.9-0.3-3.8,1-4.1,2.9l-2.4,14.3c-0.3,1.9,1,3.8,2.9,4.1c1.9,0.3,3.8-1,4.1-2.9l2.4-14.3
		C9.9,123.5,8.6,121.7,6.6,121.4z M147.5,124.3c-0.3-1.9-2.2-3.2-4.1-2.9c-1.9,0.3-3.3,2.2-2.9,4.1l2.4,14.3
		c0.3,1.9,2.2,3.3,4.1,2.9c1.9-0.3,3.2-2.2,2.9-4.1L147.5,124.3z M16.1,64.4c-1.9-0.3-3.8,1-4.1,2.9L9.6,81.5
		c-0.3,1.9,1,3.8,2.9,4.1c1.9,0.3,3.8-1,4.1-2.9L19,68.5C19.4,66.5,18.1,64.7,16.1,64.4z M101.3,82.6c-0.1,1.4-1.6,2.4-1.5,3.9
		l0,6.3h-3.6l0-3.6c0-2-1.6-3.6-3.6-3.6H57.1c-2,0-3.6,1.6-3.6,3.6l0,3.6H50l0-6.3c0.1-1.5-1.3-2.5-1.5-3.9
		c-0.2-1.4-0.3-2.7-0.3-4.1c0-2.5,0.3-4.9,1-7.4c8.6-1,17.2-1.5,25.8-1.5c8.5,0,17.1,0.5,25.7,1.5c0.7,2.5,1,5,1,7.4
		c0,0.9,0,1.8-0.1,2.7L101.3,82.6z M55.3,56.9c1.6-3.4,4.8-5.8,8.6-6.2c3.7-0.4,7.3-0.6,11-0.6c3.7,0,7.3,0.2,11,0.6
		c3.8,0.4,7,2.8,8.6,6.2l3.1,6.8c-7.6-0.7-15.1-1.1-22.7-1.1c-7.5,0-15.1,0.4-22.7,1.1L55.3,56.9z M108.8,57.2l-6.3,0l-1.5-3.3
		c-2.6-5.7-8.1-9.7-14.3-10.4c-3.9-0.4-7.8-0.6-11.7-0.6c-3.9,0-7.8,0.2-11.7,0.6c-6.2,0.7-11.7,4.6-14.3,10.4l-1.5,3.3l-6.3,0
		c-3,0-5.3,2.4-5.3,5.3c0,3,2.4,5.3,5.3,5.3h1.6c-1.1,3.6-1.6,7.2-1.6,10.7c0.1,3,0.1,6.4,1.8,9l0,5.2c0,3.9,3.2,7.1,7.1,7.1h3.6
		c3.9,0,7.1-3.2,7.1-7.1h28.5c0,3.9,3.2,7.1,7.1,7.1h3.6c3.9,0,7.1-3.2,7.1-7.1l0-5.2c1.7-2.7,1.7-6,1.8-9c0-3.5-0.5-7.1-1.6-10.7
		h1.6c3,0,5.3-2.4,5.3-5.3c0-2.7-2-4.9-4.6-5.3L108.8,57.2z M11.4,92.9c-1.9-0.3-3.8,1-4.1,2.9L4.9,110c-0.3,1.9,1,3.8,2.9,4.1
		c1.9,0.3,3.8-1,4.1-2.9L14.3,97C14.6,95,13.3,93.2,11.4,92.9z M145.1,110l-2.4-14.3c-0.3-1.9-2.2-3.2-4.1-2.9
		c-1.9,0.3-3.3,2.2-2.9,4.1l2.4,14.3c0.3,1.9,2.2,3.3,4.1,2.9C144.1,113.8,145.4,112,145.1,110z M140.4,81.5L138,67.3
		c-0.3-1.9-2.2-3.2-4.1-2.9c-1.9,0.3-3.3,2.2-2.9,4.1l2.4,14.3c0.3,1.9,2.2,3.3,4.1,2.9C139.4,85.3,140.7,83.5,140.4,81.5z
		 M20.9,35.9c-1.9-0.3-3.8,1-4.1,2.9L14.4,53c-0.3,1.9,1,3.8,2.9,4.1c1.9,0.3,3.8-1,4.1-2.9L23.8,40C24.1,38,22.8,36.2,20.9,35.9z
		 M135.6,53l-2.4-14.3c-0.3-1.9-2.2-3.2-4.1-2.9c-1.9,0.3-3.3,2.2-2.9,4.1l2.4,14.3c0.3,1.9,2.2,3.3,4.1,2.9
		C134.6,56.8,135.9,55,135.6,53z M25.6,7.4c-1.9-0.3-3.8,1-4.1,2.9l-2.4,14.3c-0.3,1.9,1,3.8,2.9,4.1c1.9,0.3,3.8-1,4.1-2.9
		l2.4-14.3C28.9,9.5,27.6,7.7,25.6,7.4z M123,7.4c1.9-0.3,3.8,1,4.1,2.9l2.4,14.3c0.3,1.9-1,3.8-2.9,4.1c-1.9,0.3-3.8-1-4.1-2.9
		L120,11.5C119.7,9.5,121,7.7,123,7.4z"/>
</g>
</svg>
