<?xml version="1.0" encoding="utf-8"?>
<!-- Generator: Adobe Illustrator 24.3.0, SVG Export Plug-In . SVG Version: 6.00 Build 0)  -->
<svg version="1.1" id="Capa_1" xmlns="http://www.w3.org/2000/svg" xmlns:xlink="http://www.w3.org/1999/xlink" x="0px" y="0px"
	 viewBox="0 0 150 150" style="enable-background:new 0 0 150 150;" xml:space="preserve">
<path d="M75,105.3c-16.8,0-30.3-13.6-30.3-30.3S58.2,44.7,75,44.7s30.3,13.6,30.3,30.3S91.8,105.3,75,105.3z M79,96.9
	c9-1.7,16.2-8.8,17.8-17.8H86.4c-1.2,3.4-4,6.2-7.4,7.4V96.9z M71,96.9V86.4c-3.4-1.2-6.2-4-7.4-7.4H53.1
	C54.8,88.1,61.9,95.2,71,96.9z M96.9,71C95,60.6,85.9,52.8,75,52.8S55,60.6,53.1,71h10.4c1.7-4.7,6.2-8.1,11.4-8.1
	c5.3,0,9.8,3.4,11.4,8.1H96.9z M75,79c2.2,0,4-1.8,4-4s-1.8-4-4-4s-4,1.8-4,4S72.8,79,75,79z M26.5,72.6V75
	c0,26.8,21.7,48.5,48.5,48.5c2.2,0,4,1.8,4,4s-1.8,4-4,4c-31.3,0-56.6-25.3-56.6-56.6v-2.4l-5.2,5.2c-1.6,1.6-4.1,1.6-5.7,0
	c-1.6-1.6-1.6-4.1,0-5.7L19.6,60c1.6-1.6,4.1-1.6,5.7,0l12.1,12.1c1.6,1.6,1.6,4.1,0,5.7c-1.6,1.6-4.1,1.6-5.7,0L26.5,72.6z
	 M123.5,77.4V75c0-26.8-21.7-48.5-48.5-48.5c-2.2,0-4-1.8-4-4s1.8-4,4-4c31.3,0,56.6,25.3,56.6,56.6v2.4l5.2-5.2
	c1.6-1.6,4.1-1.6,5.7,0c1.6,1.6,1.6,4.1,0,5.7L130.4,90c-1.6,1.6-4.1,1.6-5.7,0l-12.1-12.1c-1.6-1.6-1.6-4.1,0-5.7
	c1.6-1.6,4.1-1.6,5.7,0L123.5,77.4z"/>
</svg>
