<?xml version="1.0" encoding="utf-8"?>
<!-- Generator: Adobe Illustrator 24.3.0, SVG Export Plug-In . SVG Version: 6.00 Build 0)  -->
<svg version="1.1"
	 id="Capa_1" xmlns:cc="http://creativecommons.org/ns#" xmlns:dc="http://purl.org/dc/elements/1.1/" xmlns:inkscape="http://www.inkscape.org/namespaces/inkscape" xmlns:rdf="http://www.w3.org/1999/02/22-rdf-syntax-ns#" xmlns:sodipodi="http://sodipodi.sourceforge.net/DTD/sodipodi-0.dtd" xmlns:svg="http://www.w3.org/2000/svg"
	 xmlns="http://www.w3.org/2000/svg" xmlns:xlink="http://www.w3.org/1999/xlink" x="0px" y="0px" viewBox="0 0 700 700"
	 style="enable-background:new 0 0 700 700;" xml:space="preserve">
<style type="text/css">
	.st0{fill-rule:evenodd;clip-rule:evenodd;}
</style>
<g transform="translate(0,-288.53332)">
	<path class="st0" d="M265.1,295.2c-58.4,0-105.3,46.3-108.8,104l-18.1,13.7c-25,18.9-39.8,48.4-39.8,79.8v83.4
		c0,37.3,30.4,67.9,67.7,67.9H534c37.3,0,67.7-30.6,67.7-67.9v-83.4c0-31.4-14.7-61-39.8-79.8l-16.8-12.7v5.5
		c0-60.9-49.4-110.5-110.1-110.5L265.1,295.2z M265.1,317.4h169.8c48.7,0,88,39.4,88,88.3v5.5l25.7,19.3
		c19.5,14.7,30.9,37.7,30.9,62.1v83.4c0,25.4-20.3,45.8-45.5,45.8H166.1c-25.3,0-45.6-20.4-45.6-45.8v-83.4
		c0-24.5,11.5-47.5,31-62.1l25.7-19.3v-5.5C177.1,356.8,216.4,317.4,265.1,317.4z"/>
	<path class="st0" d="M155.4,402.3l-7,21l29.8,10c9.5,3.2,19.5,4.8,29.5,4.8h284.6c10,0,20-1.6,29.5-4.8l29.8-10l-7-21l-29.8,10
		c-7.3,2.4-14.8,3.7-22.5,3.7H207.7c-7.7,0-15.3-1.2-22.5-3.7L155.4,402.3z"/>
	<path class="st0" d="M98.4,533.5c0,37.3,30.4,67.9,67.7,67.9H534c37.3,0,67.7-30.6,67.7-67.9h-22.1c0,25.4-20.3,45.8-45.5,45.8
		H166.1c-25.3,0-45.6-20.4-45.6-45.8H98.4z"/>
	<path class="st0" d="M155,634v56.8c0,13.8,11.4,25.3,25.2,25.3h28.3c13.8,0,25.3-11.5,25.3-25.3V634h-22.1v56.8
		c0,1.9-1.3,3.1-3.1,3.1h-28.3c-1.8,0-3.1-1.2-3.1-3.1V634H155z"/>
	<path class="st0" d="M466.3,634v56.8c0,13.8,11.4,25.3,25.2,25.3h28.3c13.8,0,25.2-11.5,25.2-25.3V634h-22.1v56.8
		c0,1.9-1.3,3.1-3.1,3.1h-28.3c-1.8,0-3.1-1.2-3.1-3.1V634H466.3z"/>
	<path d="M194.4,472.8c-21.6,0-39.4,17.8-39.4,39.5c0,21.7,17.7,39.5,39.4,39.5c21.6,0,39.4-17.8,39.4-39.5
		C233.7,490.6,216,472.8,194.4,472.8z M194.4,494.9c9.6,0,17.2,7.6,17.2,17.3c0,9.7-7.6,17.3-17.2,17.3c-9.6,0-17.2-7.6-17.2-17.3
		C177.1,502.5,184.7,494.9,194.4,494.9z"/>
	<path d="M505.7,472.8c-21.6,0-39.4,17.8-39.4,39.5c0,21.7,17.8,39.5,39.4,39.5c21.6,0,39.4-17.8,39.4-39.5
		C545.1,490.6,527.3,472.8,505.7,472.8z M505.7,494.9c9.6,0,17.2,7.6,17.2,17.3c0,9.7-7.6,17.3-17.2,17.3c-9.6,0-17.3-7.6-17.3-17.3
		C488.4,502.5,496.1,494.9,505.7,494.9z"/>
	<path class="st0" d="M279.3,472.8c-6.1,0-11.1,4.9-11.1,11.1c0,0.9,0.1,1.8,0.3,2.7l14.1,56.8c1.2,5,5.7,8.4,10.8,8.4h113.2
		c5.1,0,9.5-3.5,10.7-8.4l14.1-56.8c1.5-5.9-2.1-11.9-8.1-13.4c-0.9-0.2-1.8-0.3-2.7-0.3H279.3z M293.4,494.9h113.2l-8.6,34.7h-95.9
		L293.4,494.9z"/>
	<path class="st0" d="M123.6,366.2c-21.6,0-39.4,17.8-39.4,39.5v14.2c0,13.8,11.4,25.3,25.2,25.3h20.9v-22.1h-20.9
		c-1.8,0-3.1-1.2-3.1-3.1v-14.2c0-9.7,7.6-17.3,17.3-17.3h42.4v-22.2L123.6,366.2z"/>
	<path class="st0" d="M534,366.2v22.2h42.4c9.6,0,17.2,7.6,17.2,17.3v14.2c0,1.9-1.3,3.1-3.1,3.1h-22.8v22.1h22.8
		c13.8,0,25.2-11.5,25.2-25.3v-14.2c0-21.7-17.7-39.5-39.4-39.5L534,366.2z"/>
	<path class="st0" d="M205.1,738.2c-6.1,0.1-11,5.2-10.9,11.3c0.1,3.4,1.7,6.5,4.3,8.6l22.1,17.4c12.5,9.8,10.1,28.4-4.5,34.7
		l-93,40.3c-32.5,14.1-37.9,59.1-9.7,80.6l64,48.5c4.8,3.8,11.8,2.9,15.6-2c3.8-4.8,2.9-11.8-2-15.6c-0.1,0-0.1-0.1-0.2-0.1
		l-64-48.5c-15.6-11.8-12.8-34.8,5.1-42.6l92.9-40.2c29.1-12.6,34.3-52.8,9.4-72.4l-22.1-17.4C210.3,739,207.7,738.2,205.1,738.2z"
		/>
	<path class="st0" d="M482,738.2c-6.1,0.1-11,5.2-10.9,11.3c0.1,3.4,1.7,6.5,4.3,8.6l22.1,17.4c12.5,9.8,10.1,28.4-4.5,34.7
		l-93,40.3c-32.5,14.1-37.9,59.1-9.7,80.6l64,48.5c4.8,3.8,11.8,2.9,15.6-2c3.8-4.8,2.9-11.8-2-15.6c-0.1,0-0.1-0.1-0.2-0.1
		l-64-48.5c-15.6-11.8-12.8-34.8,5.1-42.6l92.9-40.2c29.1-12.6,34.3-52.8,9.4-72.4l-22.1-17.4C487.1,739,484.6,738.2,482,738.2z"/>
</g>
</svg>
