<?xml version="1.0" encoding="utf-8"?>
<!-- Generator: Adobe Illustrator 24.3.0, SVG Export Plug-In . SVG Version: 6.00 Build 0)  -->
<svg version="1.1" id="Capa_1" xmlns="http://www.w3.org/2000/svg" xmlns:xlink="http://www.w3.org/1999/xlink" x="0px" y="0px"
	 viewBox="0 0 700 700" style="enable-background:new 0 0 700 700;" xml:space="preserve">
<style type="text/css">
	.st0{fill-rule:evenodd;clip-rule:evenodd;}
</style>
<g>
	<path d="M209.6,138.5c-41.4-0.1-78.4,23.6-96.2,61.1l-29.3,60.2c-8.9,18.7-27.8,30.9-48.5,30.9H16.4v214.1h513.5
		c86.1,0,155.6-69.4,155.6-155.6c0-66.3-42-125.3-104.5-147.2C461.7,160.3,335.9,138.6,209.6,138.5L209.6,138.5z M244.7,166.1
		c99.4,3.3,197.8,19.6,292.7,49.3c55.9,17.5,94.3,69.4,94.5,128c0.3,74.2-59.6,134.4-133.8,134.7H215.5c-44.3,0-80.3-35.9-80.3-80.3
		V271.4c0-1.2,0-2.2,0-3.3C137.2,209.5,186.2,164.1,244.7,166.1L244.7,166.1z"/>
	<path class="st0" d="M346.5,228.1c0.9-2.7,3.9-4.9,6.7-4.9h61.7c2.8,0,4.3,2.1,3.2,4.7l-32.1,78c-1.1,2.6,0.4,4.7,3.2,4.7h51.5
		c2.8,0,3.7,1.8,1.9,4L335.2,449c-7.1,8.9-10,7.3-6.6-3.5l28.2-88.8c0.9-2.7-0.8-4.9-3.6-4.9H312c-2.8,0-4.4-2.2-3.6-4.9
		L346.5,228.1z"/>
</g>
</svg>
