<?xml version="1.0" encoding="utf-8"?>
<!-- Generator: Adobe Illustrator 24.3.0, SVG Export Plug-In . SVG Version: 6.00 Build 0)  -->
<svg version="1.1" id="Capa_1" xmlns="http://www.w3.org/2000/svg" xmlns:xlink="http://www.w3.org/1999/xlink" x="0px" y="0px"
	 viewBox="0 0 700 700" style="enable-background:new 0 0 700 700;" xml:space="preserve">
<style type="text/css">
	.st0{fill-rule:evenodd;clip-rule:evenodd;}
</style>
<g>
	<path class="st0" d="M296.1,86.9c0,14.1,0,27.6,0.1,38.2c0,22.6,17.5,41.4,40.1,43.1l-0.2,0c104.6,8.9,187.9,93,195.5,198
		c0.9,12.1,5.8,21.2,12.9,27.5c6.9,6.1,16.2,9.9,27.9,9.9c10.8,0,25.2,0,40.2,0c-11.1,153.1-139.1,274.1-295,274.1
		C154.6,677.7,22,545.2,22,381.9C22,226,143,98,296.1,86.9L296.1,86.9z M317.8,247.2c74.4,0,134.7,60.4,134.7,134.7
		s-60.4,134.7-134.7,134.7s-134.7-60.4-134.7-134.7S243.4,247.2,317.8,247.2z M317.8,323.6c32.2,0,58.3,26.1,58.3,58.3
		s-26.1,58.3-58.3,58.3s-58.3-26.1-58.3-58.3S285.6,323.6,317.8,323.6z"/>
	<path class="st0" d="M338,146.6c-11.3-0.8-20-10.2-20-21.6c-0.1-24.8-0.1-66.2-0.1-91.6c0-6,2.4-11.7,6.8-15.8
		c4.3-4.1,10.1-6.3,16.1-6c186.5,11.5,336,160.9,347.3,347.4c0.3,5.9-1.8,11.7-5.9,16c-4.1,4.3-9.8,6.7-15.7,6.7
		c-26.2,0.1-69.3,0.1-93.7,0.1c-11.3,0-18.4-6.1-19.2-17.3C545,249,453.2,156.3,338,146.6L338,146.6z"/>
</g>
</svg>
