<?xml version="1.0" encoding="utf-8"?>
<!-- Generator: Adobe Illustrator 24.3.0, SVG Export Plug-In . SVG Version: 6.00 Build 0)  -->
<svg version="1.1"
	 id="Capa_1" xmlns:cc="http://creativecommons.org/ns#" xmlns:dc="http://purl.org/dc/elements/1.1/" xmlns:inkscape="http://www.inkscape.org/namespaces/inkscape" xmlns:rdf="http://www.w3.org/1999/02/22-rdf-syntax-ns#" xmlns:sodipodi="http://sodipodi.sourceforge.net/DTD/sodipodi-0.dtd" xmlns:svg="http://www.w3.org/2000/svg"
	 xmlns="http://www.w3.org/2000/svg" xmlns:xlink="http://www.w3.org/1999/xlink" x="0px" y="0px" viewBox="0 0 150 150"
	 style="enable-background:new 0 0 150 150;" xml:space="preserve">
<g transform="translate(0,-288.53332)">
	<path d="M75,290.5c-39.5,0-71.6,32-71.6,71.6c0,26.4,14.5,50.6,37.7,63V413c0-2.9,0.4-5.7,1.2-8.4c-13.2-10.1-20.9-25.8-21-42.5
		c0-29.7,24-53.7,53.7-53.7s53.7,24,53.7,53.7c0,16.7-7.8,32.4-21,42.5c0.7,2.7,1.1,5.5,1.1,8.4V425c23.2-12.5,37.7-36.7,37.7-63
		C146.6,322.5,114.5,290.5,75,290.5L75,290.5z"/>
	<path d="M75,323.7c-21.2,0-38.3,17.2-38.3,38.3c0,11.1,4.8,21.6,13.1,28.9c0.9-0.9,1.8-1.8,2.7-2.7c2.9-9,11.3-15.6,21.2-15.6h2.6
		c9.9,0,18.3,6.5,21.2,15.5c1,0.8,1.9,1.7,2.8,2.7c8.3-7.3,13.1-17.8,13.1-28.8C113.3,340.9,96.2,323.7,75,323.7L75,323.7z
		 M69.9,334.1h10.2c2.8,0,5.1,2.3,5.1,5.1c0,2.8-2.3,5.1-5.1,5.1H69.9c-2.8,0-5.1-2.3-5.1-5.1C64.8,336.4,67.1,334.1,69.9,334.1z"/>
	<path d="M73.7,376.5c-10.3,0-18.5,8.3-18.5,18.5v25.6c0,1.8,1.4,3.2,3.2,3.2h33.2c1.8,0,3.2-1.4,3.2-3.2v-25.6
		c0-10.3-8.3-18.5-18.5-18.5H73.7z M69.9,384.6h10.2v5.1H69.9L69.9,384.6z"/>
	<path d="M98.6,394.9c4.1,5.1,6.4,11.4,6.4,18.1v23.6H45V413c0-6.6,2.3-13,6.4-18c0,0.1,0,0.1,0,0.1v25.6c0,3.9,3.2,7,7,7h33.2
		c3.9,0,7-3.2,7-7v-25.6C98.7,395,98.7,395,98.6,394.9L98.6,394.9z"/>
</g>
</svg>
