<?xml version="1.0" encoding="utf-8"?>
<!-- Generator: Adobe Illustrator 24.3.0, SVG Export Plug-In . SVG Version: 6.00 Build 0)  -->
<svg version="1.1" id="Capa_1" xmlns="http://www.w3.org/2000/svg" xmlns:xlink="http://www.w3.org/1999/xlink" x="0px" y="0px"
	 viewBox="0 0 150 150" style="enable-background:new 0 0 150 150;" xml:space="preserve">
<g>
	<path d="M94.4,34.3c-2.7-1.3-5.9-0.1-7.1,2.6s-0.1,5.9,2.6,7.1c12.1,5.7,19.9,18.1,19.9,31.5c0,9.2-3.7,17.9-10.3,24.4
		c-6.6,6.5-15.4,10.1-24.5,10c-19.1-0.1-34.6-15.7-34.5-34.8C40.4,61.8,48,49.9,60,44.1c2.7-1.3,3.8-4.5,2.5-7.2
		c-1.3-2.7-4.5-3.8-7.2-2.5C39.6,42,29.7,57.6,29.6,75.1c-0.1,25,20.1,45.5,45.1,45.6c0.1,0,0.2,0,0.2,0c12,0,23.3-4.7,31.9-13.1
		c8.6-8.5,13.4-19.9,13.5-32C120.5,58,110.2,41.8,94.4,34.3z"/>
	<path d="M75,81.5c3,0,5.4-2.4,5.4-5.4V25.7c0-3-2.4-5.4-5.4-5.4c-3,0-5.4,2.4-5.4,5.4v50.4C69.6,79.1,72,81.5,75,81.5z"/>
	<path d="M75,1.5C34.5,1.5,1.5,34.5,1.5,75c0,40.5,33,73.5,73.5,73.5c40.5,0,73.5-33,73.5-73.5C148.5,34.5,115.5,1.5,75,1.5z
		 M75,137.8c-34.6,0-62.8-28.2-62.8-62.8c0-34.6,28.2-62.8,62.8-62.8s62.8,28.2,62.8,62.8C137.8,109.6,109.6,137.8,75,137.8z"/>
</g>
</svg>
