<?xml version="1.0" encoding="utf-8"?>
<!-- Generator: Adobe Illustrator 24.3.0, SVG Export Plug-In . SVG Version: 6.00 Build 0)  -->
<svg version="1.1" id="Capa_1" xmlns="http://www.w3.org/2000/svg" xmlns:xlink="http://www.w3.org/1999/xlink" x="0px" y="0px"
	 viewBox="0 0 700 700" style="enable-background:new 0 0 700 700;" xml:space="preserve">
<g>
	<path d="M691.2,309.6c-190.2-207.1-485-205.9-679.5-5.3c-3.7,4.2-4.2,10.3-1.3,15.1l113.5,164.3c1.4,1.6,3.1,2.9,4.9,4
		c3.1,1.2,6.6,1.2,9.8,0c62.3-29.8,130.3-46,199.3-47.7v-35.3c0-6.5,5.3-11.8,11.8-11.8c6.5,0,11.8,5.3,11.8,11.8V440
		c11.8,0,23.5,1.1,34.4,2.2l129.5-129.5c4.6-4.6,12.1-4.6,16.7,0.1c4.6,4.6,4.6,12.1-0.1,16.7L425.6,445.9l0,0
		c47.1,7.4,93,21.5,136.1,41.9c5.1,2.1,11,0.4,14.1-4.1l113.5-164.3C691.3,316.6,692,313,691.2,309.6L691.2,309.6z M261.1,246.4
		c-2.7,5.5-4.1,11.5-4,17.7c0,6.5-5.3,11.8-11.8,11.8s-11.8-5.3-11.8-11.8c0-12.7,3.8-40.1,22.1-33.4c2.8,1.4,5,3.8,6,6.8
		C262.6,240.4,262.4,243.6,261.1,246.4L261.1,246.4z M327.4,220.3c-2.4,6-9.1,9-15.2,6.7c-9.5-3.6-20-3.6-29.4,0
		c-2.9,1.2-6.2,1.1-9.1-0.1c-2.9-1.3-5.2-3.6-6.3-6.6C257.2,193.3,337.9,193.2,327.4,220.3L327.4,220.3z M361.5,365.7
		c0,6.5-5.3,11.8-11.8,11.8c-6.5,0-11.8-5.3-11.8-11.8v-39.4c0-6.5,5.3-11.8,11.8-11.8c6.5,0,11.8,5.3,11.8,11.8V365.7z
		 M365.5,246.4c-5.9,10.2-3.6,29.9-4,41.2c0,6.5-5.3,11.8-11.8,11.8c-6.5,0-11.8-5.3-11.8-11.8v-23.5c0-6.1-1.4-12.1-4-17.7
		c-2-4.5-1-9.8,2.5-13.2c3.5-3.4,8.8-4.3,13.2-2.2c4.4-2.1,9.7-1.2,13.2,2.2C366.5,236.6,367.5,241.9,365.5,246.4L365.5,246.4z
		 M432.1,220.3c-1.1,2.9-3.4,5.3-6.3,6.5c-2.9,1.3-6.1,1.3-9.1,0.2c-9.5-3.6-20-3.6-29.4,0c-2.9,1.2-6.2,1.1-9.1-0.1
		c-2.9-1.3-5.2-3.6-6.3-6.6C361.5,193.3,442.2,193.2,432.1,220.3L432.1,220.3z M454.4,276.4c-16,0-9.5-19.8-15.8-29.4
		c-1.6-2.9-1.9-6.2-0.9-9.3c1-3.1,3.2-5.6,6.2-7c18.5-6.7,21.7,20.7,22.1,33.4c0,3.1-1.3,6.2-3.5,8.4c-2.2,2.2-5.3,3.4-8.4,3.4
		L454.4,276.4z"/>
	<path d="M368.8,469.3c-11.5-6.2-25.4-6.4-37.1-0.7c-11.8,5.8-20,16.9-22.1,29.8c-2.1,12.9,2.1,26.1,11.4,35.4
		c32.6,32.9,86.9-7.3,64.6-47.9l40-40c-9.9-1.5-19.8-2.7-29.7-3.6L368.8,469.3z"/>
</g>
</svg>
