<?xml version="1.0" encoding="utf-8"?>
<!-- Generator: Adobe Illustrator 24.3.0, SVG Export Plug-In . SVG Version: 6.00 Build 0)  -->
<svg version="1.1" id="Capa_1" xmlns="http://www.w3.org/2000/svg" xmlns:xlink="http://www.w3.org/1999/xlink" x="0px" y="0px"
	 viewBox="0 0 700 700" style="enable-background:new 0 0 700 700;" xml:space="preserve">
<style type="text/css">
	.st0{fill:#191919;}
</style>
<g>
	<path class="st0" d="M350,5.6C160.3,5.6,6.3,159.6,6.3,349.3S160.3,693,350,693s343.7-154,343.7-343.7S539.7,5.6,350,5.6L350,5.6z
		 M350,109.4c132.7,0,241.1,107.2,241.1,239.9S482.7,589.2,350,589.2S110.1,482,110.1,349.3S217.3,109.4,350,109.4z M279.6,146.3
		c-84.2,29.4-145.3,108.7-145.3,203c0,14.1,2,28.1,4.6,41.5c2-1.8,4.1-3.2,6.9-4.6c-3.7-27.6,49.4-0.4,103.8-94.6
		c53.1-92,7.1-124.7,28.8-136.1C278.5,151.8,278.4,149.2,279.6,146.3L279.6,146.3z M421.5,146.3c1.3,2.9,1.2,5.5,1.2,9.2
		c21.8,11.4-24.3,44.1,28.8,136.1c54.4,94.2,107.5,67,103.8,94.6c2.2,1.2,4.1,2.1,5.8,3.5c2.5-13,4.6-26.6,4.6-40.4
		C565.7,255,505.7,175.7,421.5,146.3L421.5,146.3z M351.2,465.8c-103.9,0-111.8,54.9-131.5,45c-2.6,1.8-4.4,3.7-6.9,4.6
		C250,546.1,297.8,565,350,565c52.8,0,101-19.4,138.4-50.7c-2.4-1-4.4-1.7-6.9-3.5C461.8,520.7,455,465.8,351.2,465.8L351.2,465.8z"
		/>
</g>
</svg>
