<?xml version="1.0" encoding="utf-8"?>
<!-- Generator: Adobe Illustrator 24.3.0, SVG Export Plug-In . SVG Version: 6.00 Build 0)  -->
<svg version="1.1" id="Capa_1" xmlns="http://www.w3.org/2000/svg" xmlns:xlink="http://www.w3.org/1999/xlink" x="0px" y="0px"
	 viewBox="0 0 150 150" style="enable-background:new 0 0 150 150;" xml:space="preserve">
<g>
	<path d="M43.8,59.8v66c0,11.5,9.4,20.9,20.9,20.9h20.5c11.5,0,20.9-9.4,20.9-20.9v-66c0-11.5-9.4-20.9-20.9-20.9H64.7
		C53.2,38.9,43.8,48.3,43.8,59.8z M55,59.8c0-5.4,4.4-9.8,9.8-9.8h20.5c5.4,0,9.8,4.4,9.8,9.8v66c0,5.4-4.4,9.7-9.8,9.7H64.7
		c-5.4,0-9.8-4.4-9.8-9.7V59.8z"/>
	<path d="M92.2,59.8c0-3.8-3.1-7-7-7H64.7c-3.8,0-7,3.1-7,7v31.6h34.4V59.8z M84.9,85c0,0.8-0.6,1.4-1.4,1.4h-17
		c-0.8,0-1.4-0.6-1.4-1.4v-13c0-0.8,0.6-1.4,1.4-1.4H80v-5c0-2.8-2.3-5.1-5-5.1s-5,2.3-5,5.1c0,0.8-0.6,1.4-1.4,1.4
		c-0.8,0-1.4-0.6-1.4-1.4c0-4.3,3.5-7.9,7.8-7.9s7.8,3.5,7.8,7.9v5h0.7c0.8,0,1.4,0.6,1.4,1.4L84.9,85L84.9,85z"/>
	<rect x="67.9" y="73.5" width="14.2" height="10.2"/>
	<path d="M64.7,132.7h20.5c3.8,0,7-3.1,7-6.9V94.2H57.8v31.6C57.8,129.6,60.9,132.7,64.7,132.7z M65.1,113.4c0-0.8,0.6-1.4,1.4-1.4
		h0.7v-5c0-4.3,3.5-7.9,7.8-7.9s7.8,3.5,7.8,7.9v5h0.7c0.8,0,1.4,0.6,1.4,1.4v13c0,0.8-0.6,1.4-1.4,1.4h-17c-0.8,0-1.4-0.6-1.4-1.4
		L65.1,113.4L65.1,113.4z"/>
	<path d="M80,107c0-2.8-2.3-5.1-5-5.1s-5,2.3-5,5.1v5H80L80,107L80,107z"/>
	<rect x="67.9" y="114.8" width="14.2" height="10.2"/>
	<path d="M96.5,17.8c0.7,0,1.4-0.3,2-0.8c1.1-1.1,1.1-2.8,0-3.9C92.2,6.7,83.9,3.3,75,3.3S57.8,6.7,51.6,13c-1.1,1.1-1.1,2.8,0,3.9
		c1.1,1.1,2.9,1.1,3.9,0c5.2-5.2,12.1-8.1,19.5-8.1c7.4,0,14.3,2.9,19.5,8.1C95,17.5,95.8,17.8,96.5,17.8z"/>
	<path d="M89.4,24.9c0.7,0,1.4-0.3,2-0.8c1.1-1.1,1.1-2.8,0-3.9C87,15.7,81.2,13.3,75,13.3c-6.2,0-12,2.4-16.4,6.8
		c-1.1,1.1-1.1,2.9,0,3.9c1.1,1.1,2.9,1.1,3.9,0c3.3-3.3,7.7-5.1,12.4-5.1c4.7,0,9.1,1.8,12.4,5.1C87.9,24.6,88.7,24.9,89.4,24.9z"
		/>
	<path d="M65.7,27.2c-1.1,1.1-1.1,2.8,0,3.9c1.1,1.1,2.8,1.1,3.9,0c2.9-2.9,7.7-2.9,10.6,0c0.5,0.5,1.3,0.8,2,0.8
		c0.7,0,1.4-0.3,2-0.8c1.1-1.1,1.1-2.8,0-3.9C79.2,22.1,70.8,22.1,65.7,27.2z"/>
</g>
</svg>
