<?xml version="1.0" encoding="utf-8"?>
<!-- Generator: Adobe Illustrator 24.3.0, SVG Export Plug-In . SVG Version: 6.00 Build 0)  -->
<svg version="1.1" id="Capa_1" xmlns="http://www.w3.org/2000/svg" xmlns:xlink="http://www.w3.org/1999/xlink" x="0px" y="0px"
	 viewBox="0 0 150 150" style="enable-background:new 0 0 150 150;" xml:space="preserve">
<g>
	<path d="M75.1,28.5c1.3,0,2.5-0.5,3.4-1.4c0.9-0.9,1.4-2.1,1.4-3.4l0-19.1c0-1.2-0.5-2.4-1.4-3.3c-0.9-0.9-2-1.4-3.3-1.4
		c-1.3,0-2.5,0.5-3.4,1.4c-0.9,0.9-1.4,2.1-1.4,3.4l0.2,19.1c0,1.2,0.5,2.3,1.4,3.2C72.7,28,73.9,28.5,75.1,28.5L75.1,28.5z"/>
	<path d="M123.2,11.1c-0.9-0.9-2.2-1.3-3.4-1.3c-1.3,0-2.5,0.6-3.3,1.5l-13,14c-0.8,0.9-1.3,2.1-1.3,3.4c0,1.3,0.6,2.4,1.5,3.3
		c0.9,0.9,2.1,1.4,3.4,1.3c1.3,0,2.6-0.5,3.6-1.5l12.8-14c0.9-0.9,1.4-2.2,1.3-3.4C124.7,13.1,124.1,11.9,123.2,11.1L123.2,11.1z"/>
	<path d="M46.8,32.6c0.9-0.9,1.4-2.1,1.5-3.4s-0.5-2.5-1.3-3.4L33.7,12c-0.9-1-2.1-1.6-3.4-1.6c-1.3-0.1-2.6,0.4-3.5,1.3
		c-0.9,0.9-1.5,2.2-1.5,3.5s0.6,2.6,1.5,3.5l13.3,13.8c0.9,0.9,2.1,1.4,3.4,1.4C44.7,33.9,45.9,33.4,46.8,32.6L46.8,32.6z"/>
	<path d="M100.4,47.3c-6.7-6.6-15.7-10.2-25.1-10.1c-9.4,0.1-18.4,3.9-24.9,10.6c-6.6,6.7-10.2,15.7-10.1,25.1l0.3,33.5
		c0,1.3,0.5,2.5,1.4,3.4c0.9,0.9,2.1,1.4,3.4,1.4l13.2-0.1l0.2,20.1h0c0,1.3,0.5,2.5,1.4,3.4c0.9,0.9,2.1,1.4,3.4,1.4
		c1.3,0,2.5-0.5,3.4-1.4c0.9-0.9,1.4-2.1,1.4-3.4L68,110.9h15.3l0.3,34.4c0,1.3,0.5,2.5,1.4,3.4c0.9,0.9,2.1,1.4,3.4,1.4
		c1.3,0,2.5-0.5,3.4-1.4c0.9-0.9,1.4-2.1,1.4-3.4l-0.3-34.3h9.8c0.4,0,0.8-0.1,1.2-0.3h2.6c1.3,0,2.5-0.5,3.4-1.4
		c0.9-0.9,1.4-2.1,1.4-3.4l-0.3-33.5C110.9,62.9,107.1,53.9,100.4,47.3L100.4,47.3z M87.9,86.8c1.3-0.1,2.5,0.4,3.5,1.3
		c0.9,0.9,1.5,2.1,1.5,3.3l0.5,13.7h-9.6l-0.5-13.3c0-1.3,0.4-2.5,1.3-3.4C85.5,87.4,86.7,86.9,87.9,86.8L87.9,86.8z M63.1,87
		c1.3,0,2.5,0.5,3.4,1.3c0.9,0.9,1.4,2.1,1.5,3.3l0.3,13.4h-9.5l-0.3-13.2l0,0c0-1.3,0.5-2.5,1.3-3.4C60.7,87.6,61.9,87.1,63.1,87
		L63.1,87z"/>
</g>
</svg>
