<?xml version="1.0" encoding="utf-8"?>
<!-- Generator: Adobe Illustrator 24.3.0, SVG Export Plug-In . SVG Version: 6.00 Build 0)  -->
<svg version="1.1" id="Capa_1" xmlns="http://www.w3.org/2000/svg" xmlns:xlink="http://www.w3.org/1999/xlink" x="0px" y="0px"
	 viewBox="0 0 700 700" style="enable-background:new 0 0 700 700;" xml:space="preserve">
<g>
	<path d="M281.6,87.9C147.4,87.9,14,194.1,14,355.4S147.4,623,281.6,623c121.9,0,160.6-72,160.6-267.6
		C442.1,159.7,403.5,87.9,281.6,87.9z M366.3,569.3c-28.7,0-52-95.8-52-214s23.3-214,52-214s52,95.8,52,214S395,569.3,366.3,569.3z"
		/>
	<path d="M510.8,183.7l105.4-42.2l0,0c21.7-8.6,32.2-33.2,23.6-54.9c-8.6-21.7-33.2-32.2-54.9-23.6l-105.4,42.2
		c-21.7,8.6-32.2,33.2-23.6,54.9C464.7,181.8,489.2,192.3,510.8,183.7z"/>
	<path d="M616.2,569.1l-105.4-42.2c-21.7-8.6-46.1,1.9-54.9,23.6c-8.6,21.7,1.9,46.1,23.6,54.9l105.4,42.2
		c21.7,8.6,46.1-1.9,54.9-23.6C648.4,602.3,637.9,577.8,616.2,569.1z"/>
	<path d="M642.8,313.2H537.4c-23.3,0-42.2,18.8-42.2,42.2c0,23.3,18.8,42.2,42.2,42.2h105.4c23.3,0,42.2-18.8,42.2-42.2
		C684.9,332,666,313.2,642.8,313.2z"/>
</g>
</svg>
