<?xml version="1.0" encoding="utf-8"?>
<!-- Generator: Adobe Illustrator 24.3.0, SVG Export Plug-In . SVG Version: 6.00 Build 0)  -->
<svg version="1.1" id="Capa_1" xmlns="http://www.w3.org/2000/svg" xmlns:xlink="http://www.w3.org/1999/xlink" x="0px" y="0px"
	 viewBox="0 0 700 700" style="enable-background:new 0 0 700 700;" xml:space="preserve">
<style type="text/css">
	.st0{fill:#191919;}
</style>
<g>
	<path class="st0" d="M347.3,5.6C157.6,5.6,3.6,159.6,3.6,349.3S157.6,693,347.3,693S691,539.1,691,349.3S537,5.6,347.3,5.6
		L347.3,5.6z M347.3,109.4c132.7,0,241.1,107.2,241.1,239.9S480,589.2,347.3,589.2S107.4,482,107.4,349.3S214.6,109.4,347.3,109.4z
		 M276.9,146.3c-84.2,29.4-145.3,108.7-145.3,203c0,14.1,2,28.1,4.6,41.5c2-1.8,4.1-3.2,6.9-4.6c-3.7-27.6,49.4-0.4,103.8-94.6
		c53.1-92,7.1-124.7,28.8-136.1C275.8,151.8,275.7,149.2,276.9,146.3L276.9,146.3z M418.8,146.3c1.3,2.9,1.2,5.5,1.2,9.2
		c21.8,11.4-24.3,44.1,28.8,136.1c54.4,94.2,107.5,67,103.8,94.6c2.2,1.2,4.1,2.1,5.8,3.5c2.5-13,4.6-26.6,4.6-40.4
		C563,255,503,175.7,418.8,146.3L418.8,146.3z M348.5,465.8c-103.9,0-111.8,54.9-131.5,45c-2.6,1.8-4.4,3.7-6.9,4.6
		c37.3,30.7,85.1,49.6,137.2,49.6c52.8,0,101-19.4,138.4-50.7c-2.4-1-4.4-1.7-6.9-3.5C459.1,520.7,452.3,465.8,348.5,465.8
		L348.5,465.8z"/>
</g>
</svg>
