<?xml version="1.0" encoding="utf-8"?>
<!-- Generator: Adobe Illustrator 24.3.0, SVG Export Plug-In . SVG Version: 6.00 Build 0)  -->
<svg version="1.1" id="Capa_1" xmlns="http://www.w3.org/2000/svg" xmlns:xlink="http://www.w3.org/1999/xlink" x="0px" y="0px"
	 viewBox="0 0 150 150" style="enable-background:new 0 0 150 150;" xml:space="preserve">
<g>
	<path d="M125.9,121c0.3,1,1.3,1.7,2.4,1.7c0.3,0,0.5,0,0.8-0.1c1.3-0.4,2-1.8,1.6-3.1l-0.5-1.5l5.9-11.9c0.9-1.7,1.3-3.6,1.3-5.5
		V89.6c0-1.3-0.2-2.7-0.6-3.9l-2.9-8.7c-0.5-1.5,0.2-3.1,1.6-3.8c0.8-0.4,1.7-0.4,2.5-0.1c0.8,0.3,1.5,1,1.8,1.8l4.1,11.1
		c0.6,1.7,0.9,3.4,0.9,5.2v10.3c0,0.8-0.1,1.6-0.2,2.4l-4.7,28.3c0,0.1,0,0.3,0,0.4v14.9c0,1.4,1.1,2.5,2.5,2.5s2.5-1.1,2.5-2.5
		v-14.7l4.7-28.1c0.2-1.1,0.3-2.2,0.3-3.3V91.2c0-2.4-0.4-4.7-1.3-7l-4.1-11.1c-0.8-2.1-2.5-3.8-4.6-4.7c-2.1-0.8-4.5-0.7-6.6,0.3
		c-3.6,1.8-5.3,6-4.1,9.8l2.9,8.7c0.3,0.8,0.4,1.6,0.4,2.4v10.9c0,1.1-0.3,2.3-0.8,3.3l-3.7,7.4l-0.4-1.1l0.8-4.1
		c1.1-5.6-2.3-11.1-7.9-12.5c-2.6-0.6-5.2,0.9-6,3.4l-3.8,13.4c-0.4,1.3-0.6,2.7-0.6,4.1v15.2c0,2.3,0.5,4.6,1.6,6.6l1.4,2.9
		c1.3,2.6,2,5.4,2,8.3c0,1.4,1.1,2.5,2.5,2.5c1.4,0,2.5-1.1,2.5-2.5c0-3.6-0.9-7.3-2.5-10.5l-1.4-2.9c-0.7-1.4-1-2.9-1-4.4v-15.2
		c0-0.9,0.1-1.8,0.4-2.7l3.8-13.4c3,0.7,4.8,3.7,4.2,6.7l-0.9,4.7c-0.1,0.4-0.1,0.9,0.1,1.3L125.9,121z"/>
	<path d="M28.2,111.1c0.1-0.4,0.2-0.8,0.1-1.3l-0.9-4.7c-0.6-3,1.3-5.9,4.2-6.7l3.8,13.4c0.3,0.9,0.4,1.8,0.4,2.7v15.2
		c0,1.5-0.4,3.1-1,4.4l-1.4,2.9c-1.6,3.2-2.5,6.9-2.5,10.5c0,1.4,1.1,2.5,2.5,2.5s2.5-1.1,2.5-2.5c0-2.9,0.7-5.7,2-8.3l1.4-2.9
		c1-2.1,1.6-4.4,1.6-6.7v-15.2c0-1.4-0.2-2.8-0.6-4.1l-3.8-13.4c-0.7-2.6-3.4-4.1-6-3.4c-5.5,1.4-9,6.9-7.9,12.5l0.8,4.1l-0.4,1.1
		l-3.7-7.4c-0.5-1-0.8-2.2-0.8-3.3V89.6c0-0.8,0.1-1.6,0.4-2.3l2.9-8.7c1.3-3.8-0.5-8-4.1-9.8c-2-1-4.4-1.1-6.6-0.3
		C9,69.3,7.3,71,6.5,73.2c-0.5,1.3,0.2,2.7,1.4,3.2c1.3,0.5,2.7-0.2,3.2-1.4c0.3-0.8,0.9-1.5,1.8-1.8c0.8-0.3,1.7-0.3,2.5,0.1
		c1.4,0.7,2.1,2.3,1.6,3.8l-2.9,8.7c-0.4,1.3-0.6,2.6-0.6,3.9v10.9c0,1.9,0.5,3.8,1.3,5.5l5.9,11.9l-0.5,1.5
		c-0.4,1.3,0.3,2.7,1.6,3.1c0.3,0.1,0.5,0.1,0.8,0.1c1,0,2-0.7,2.4-1.7L28.2,111.1z"/>
	<path d="M6.2,103.9c-0.1-0.8-0.2-1.6-0.2-2.4V91.2C6,89.4,6.3,87.6,7,86L7.7,84c0.5-1.3-0.2-2.7-1.4-3.2C5,80.4,3.5,81,3.1,82.3
		l-0.7,1.9c-0.8,2.2-1.3,4.6-1.3,7v10.3c0,1.1,0.1,2.2,0.3,3.3L6,132.9v14.7c0,1.4,1.1,2.5,2.5,2.5s2.5-1.1,2.5-2.5v-14.9
		c0-0.1,0-0.3,0-0.4L6.2,103.9z"/>
	<path d="M52.1,83.5c-0.8,1.1-0.7,2.6,0.4,3.5c6.6,5.2,14.5,7.9,22.8,7.9c20.5,0,37.2-16.7,37.2-37.2S95.9,20.6,75.4,20.6
		S38.2,37.2,38.2,57.7c0,7.8,2.4,15.3,7,21.6c0.8,1.1,2.3,1.4,3.5,0.6c1.1-0.8,1.4-2.3,0.6-3.5c-2.3-3.2-3.9-6.7-4.9-10.4l8.4,0.8
		c3.3,0.3,6,2.9,6.6,6.2l2.3,13.8c-2.1-1-4.1-2.2-6-3.7C54.5,82.3,53,82.5,52.1,83.5L52.1,83.5z M89.2,86.8l2.3-13.8
		c0.6-3.3,3.3-5.8,6.6-6.2l8.4-0.8C104.1,75.2,97.6,82.8,89.2,86.8L89.2,86.8z M64.2,72.2c-0.9-5.5-5.4-9.7-11-10.3l-9.9-1
		c-0.1-1.1-0.2-2.1-0.2-3.2c0-5.2,1.3-10,3.4-14.4L65,39.9c7-1.3,14-1.3,21,0l5.2,1c1.3,0.3,2.6-0.6,2.9-2c0.3-1.3-0.6-2.6-2-2.9
		l-5.2-1c-7.6-1.4-15.3-1.4-22.8,0l-13.8,2.6c5.9-7.4,15-12.1,25.1-12.1c17.8,0,32.2,14.5,32.2,32.2c0,1.1-0.1,2.2-0.2,3.2l-9.9,1
		c-5.6,0.6-10.1,4.8-11,10.3l-2.8,16.6c-2.7,0.7-5.5,1.2-8.4,1.2c-2.9,0-5.7-0.4-8.4-1.1L64.2,72.2z"/>
	<path d="M85.9,54.7c0.5,0.5,1.1,0.7,1.8,0.7s1.3-0.2,1.8-0.7c1-1,1-2.5,0-3.5c-7.7-7.7-20.3-7.7-28,0c-1,1-1,2.5,0,3.5
		c1,1,2.5,1,3.5,0C70.7,48.9,80.1,48.9,85.9,54.7L85.9,54.7z"/>
	<path d="M78.9,61.7c0.5,0.5,1.1,0.7,1.8,0.7c0.6,0,1.3-0.2,1.8-0.7c1-1,1-2.5,0-3.5c-3.7-3.7-10.3-3.7-14,0c-1,1-1,2.5,0,3.5
		c1,1,2.5,1,3.5,0C73.8,59.8,77.1,59.8,78.9,61.7L78.9,61.7z"/>
	<path d="M77.9,67.7c0,1.4-1.1,2.5-2.5,2.5s-2.5-1.1-2.5-2.5c0-1.4,1.1-2.5,2.5-2.5S77.9,66.3,77.9,67.7"/>
	<path d="M21.9,38.1c-0.5,1.3,0.2,2.7,1.5,3.2c0.3,0.1,0.6,0.2,0.9,0.2c1,0,2-0.6,2.3-1.6C30.4,29.4,37.6,20.3,47,14.2
		c1.1-0.7,1.5-2.3,0.7-3.4C47,9.6,45.4,9.3,44.3,10C34,16.7,26.1,26.7,21.9,38.1L21.9,38.1z"/>
	<path d="M14.1,37.9c0.3,0.1,0.6,0.2,0.9,0.2c1,0,2-0.6,2.3-1.6C21.8,24,30.4,13.1,41.6,5.8c1.1-0.7,1.5-2.3,0.7-3.4
		C41.6,1.3,40,1,38.9,1.7c-12,7.9-21.4,19.6-26.3,33C12.1,36,12.8,37.4,14.1,37.9L14.1,37.9z"/>
	<path d="M103.9,14.2c9.4,6.1,16.6,15.2,20.5,25.7c0.4,1,1.3,1.6,2.3,1.6c0.3,0,0.6,0,0.9-0.2c1.3-0.5,1.9-1.9,1.5-3.2
		c-4.2-11.4-12.1-21.4-22.4-28.1c-1.1-0.7-2.7-0.4-3.4,0.7C102.4,11.9,102.7,13.4,103.9,14.2L103.9,14.2z"/>
	<path d="M109.3,5.8c11.1,7.3,19.8,18.1,24.3,30.6c0.4,1,1.3,1.6,2.3,1.6c0.3,0,0.6,0,0.9-0.2c1.3-0.5,1.9-1.9,1.5-3.2
		C133.3,21.3,124,9.6,112,1.7c-1.1-0.7-2.7-0.4-3.4,0.7C107.8,3.6,108.1,5.1,109.3,5.8L109.3,5.8z"/>
	<path d="M112.5,86.7c6.5-8.4,10-18.4,10-29c0-26-21.1-47.1-47.1-47.1S28.3,31.8,28.3,57.7s21.1,47.1,47.1,47.1
		c10.8,0,21.4-3.8,29.8-10.6c1.1-0.9,1.2-2.4,0.4-3.5c-0.9-1.1-2.4-1.2-3.5-0.3c-7.5,6.1-17,9.5-26.6,9.5
		c-23.2,0-42.1-18.9-42.1-42.1s18.9-42.1,42.1-42.1s42.1,18.9,42.1,42.1c0,9.5-3.1,18.4-9,25.9c-0.8,1.1-0.7,2.6,0.4,3.5
		C110.1,88,111.7,87.8,112.5,86.7L112.5,86.7z"/>
</g>
</svg>
