<?xml version="1.0" encoding="utf-8"?>
<!-- Generator: Adobe Illustrator 24.3.0, SVG Export Plug-In . SVG Version: 6.00 Build 0)  -->
<svg version="1.1" id="Capa_1" xmlns="http://www.w3.org/2000/svg" xmlns:xlink="http://www.w3.org/1999/xlink" x="0px" y="0px"
	 viewBox="0 0 700 700" style="enable-background:new 0 0 700 700;" xml:space="preserve">
<g>
	<path d="M521.5,201.3h-66.9c-12.1,0-21.3,9.3-21.3,21.3v66.9c0,12.1,9.3,21.3,21.3,21.3h10V340c0,11.4-7.1,22.1-17.1,27l-71.2,32
		V154.3h49.1c15.7,0,24.9-17.8,15.7-30.6L368.5,20.5c-7.8-11.4-24.2-11.4-32,0l-71.9,103.2c-9.3,12.8,0,30.6,15.7,30.6h49.1v275.4
		l-71.2-32c-10.7-5-17.1-14.9-17.1-27v-36.3c22.1-9.3,37-30.6,37-55.5c0-33.4-27-60.5-60.5-60.5c-33.4,0-60.5,27-60.5,60.5
		c0,24.9,15.7,46.3,37,55.5v36.3c0,29.9,17.8,56.9,44.8,69l90.4,40.6v56.2c-31.3,10-54.1,39.1-54.1,74c0,42.7,34.9,77.6,77.6,77.6
		c42.7,0,77.6-34.9,77.6-77.6c0-34.9-22.8-64-54.1-74l0-86.8l90.4-40.6c27-12.1,44.8-39.1,44.8-69v-29.2h10
		c12.1,0,21.3-9.3,21.3-21.3v-66.9C542.8,211.2,532.9,201.3,521.5,201.3L521.5,201.3z"/>
</g>
</svg>
