<?xml version="1.0" encoding="utf-8"?>
<!-- Generator: Adobe Illustrator 24.3.0, SVG Export Plug-In . SVG Version: 6.00 Build 0)  -->
<svg version="1.1" id="Capa_1" xmlns="http://www.w3.org/2000/svg" xmlns:xlink="http://www.w3.org/1999/xlink" x="0px" y="0px"
	 viewBox="0 0 150 150" style="enable-background:new 0 0 150 150;" xml:space="preserve">
<g>
	<path d="M62.4,122.7l-4.5,15.7h-3.8l-4.4-15.7v15.7h-4.4v-23.1h6.6l4.1,14.8l4.1-14.8h6.7v23.1h-4.4L62.4,122.7z"/>
	<path d="M79.2,129.4h-3.5v9.1h-4.9v-23.1h8.5c1.1,0,2.2,0.1,3.3,0.4c0.9,0.2,1.8,0.6,2.6,1.2c0.8,0.6,1.4,1.3,1.7,2.2
		c0.4,1,0.7,2.1,0.6,3.3c0.1,2-0.7,3.9-2.2,5.2C83.5,128.9,81.4,129.5,79.2,129.4z M78.8,119.5h-3.2v5.6h3.2c0.5,0,0.9,0,1.4-0.1
		c0.4-0.1,0.8-0.2,1.2-0.4c0.3-0.2,0.6-0.5,0.8-0.8c0.2-0.4,0.3-0.9,0.3-1.4c0-0.5-0.1-0.9-0.2-1.4c-0.1-0.3-0.3-0.6-0.6-0.8
		C80.8,119.7,79.8,119.5,78.8,119.5z"/>
	<path d="M96.8,138.7c-1.8,0-3.7-0.5-5.2-1.5c-0.7-0.4-1.3-0.9-1.9-1.5c-0.5-0.5-0.9-1.2-1.3-1.9l3.8-2.1c0.2,0.4,0.4,0.8,0.7,1.1
		c0.3,0.4,0.6,0.7,1,1c0.8,0.6,1.9,1,2.9,0.9c0.9,0,1.8-0.3,2.5-0.8c0.7-0.6,1.1-1.4,1-2.3c0-0.7-0.2-1.3-0.6-1.8
		c-0.4-0.5-0.9-0.8-1.5-1c-0.6-0.2-1.3-0.4-2-0.4c-0.7-0.1-1.3-0.1-1.9-0.1h-0.7v-4h0.6c1.4,0.1,2.9-0.1,4.2-0.7
		c1.1-0.6,1.5-1.9,1-3.1c-0.2-0.3-0.4-0.5-0.6-0.7c-0.3-0.2-0.6-0.4-0.9-0.4c-0.3-0.1-0.7-0.2-1-0.2c-0.9,0-1.7,0.2-2.4,0.7
		c-0.7,0.5-1.3,1.1-1.9,1.7l-3.2-2.9c0.9-1.1,2-1.9,3.2-2.6c1.2-0.6,2.6-1,4-1c2-0.1,4,0.5,5.6,1.6c2.4,1.8,3,5.3,1.1,7.7
		c-0.5,0.7-1.1,1.2-1.8,1.6c1.1,0.4,2.1,1.3,2.7,2.3c0.6,1.1,0.9,2.3,0.9,3.5c0.1,2-0.8,3.9-2.3,5.1
		C101.1,138.1,99,138.8,96.8,138.7z"/>
	<path d="M131.5,38.1c-0.1-0.1-0.1-0.1-0.2-0.2c-0.1-0.1-0.1-0.1-0.2-0.2l-37-37c-0.1-0.1-0.1-0.1-0.2-0.2c-0.1-0.1-0.2-0.1-0.2-0.2
		L93.4,0h-65c-5.7,0-10.3,4.6-10.3,10.3v129.3c0,5.7,4.6,10.3,10.3,10.3h93.1c5.7,0,10.3-4.6,10.3-10.3V38.5L131.5,38.1z M94.9,8.8
		L123.1,37h-23c-2.9,0-5.2-2.3-5.2-5.2V8.8z M92.1,74.5c2.3,0,4.4,0.7,6.2,2.1L98.3,54c0-0.2,0.2-0.4,0.4-0.4c0.1,0,0.1,0,0.2,0
		c4.9,2,8.6,6.4,9.7,11.6c0.1,0.1,0,0.3-0.1,0.3c-0.1,0.1-0.3,0-0.3-0.1c-1.4-2.4-4.1-3.8-6.9-3.6v19.9c0,0.2,0,0.4,0,0.6
		c-0.4,4.6-4.4,8.1-9.1,7.8c-4.6,0.3-8.7-3.2-9-7.8C83.5,77.7,87.5,74.2,92.1,74.5z M50.9,55.4c4.1,0,8.2,1.4,11.4,3.9l-0.1-41.7
		c0-0.4,0.3-0.8,0.8-0.8c0.1,0,0.2,0,0.3,0.1c9.1,3.7,15.7,11.7,17.8,21.3c0.1,0.3-0.1,0.5-0.4,0.6c-0.2,0-0.4,0-0.5-0.2
		c-2.6-4.5-7.6-7-12.7-6.6v36.6c0,0.4,0.1,0.8,0.1,1.1c0,7.9-7.5,14.4-16.6,14.4s-16.6-6.4-16.6-14.4S41.8,55.4,50.9,55.4z
		 M126.7,139.7c0,2.9-2.3,5.2-5.2,5.2H28.4c-2.9,0-5.2-2.3-5.2-5.2V99.5h35.5l7,8c0.5,0.6,1.2,0.9,1.9,0.9h59V139.7z"/>
</g>
</svg>
