<?xml version="1.0" encoding="utf-8"?>
<!-- Generator: Adobe Illustrator 24.3.0, SVG Export Plug-In . SVG Version: 6.00 Build 0)  -->
<svg version="1.1" id="Capa_1" xmlns="http://www.w3.org/2000/svg" xmlns:xlink="http://www.w3.org/1999/xlink" x="0px" y="0px"
	 viewBox="0 0 700 700" style="enable-background:new 0 0 700 700;" xml:space="preserve">
<path d="M416.9,350.2l150.3-109.3c17.1-13.7,20.5-37.6,3.4-54.7L375.9,15.5c-20.5-17.1-54.6-3.4-54.6,27.3v252.8L171,186.3
	c-17.1-10.2-37.6-6.8-47.8,6.8c-13.7,17.1-10.2,37.6,6.8,47.8l150.3,109.3L130,459.5c-13.7,10.2-17.1,30.7-6.8,47.8
	c10.2,13.7,30.7,17.1,47.8,6.8l150.3-109.3l0,252.8c0,13.7,6.8,27.3,20.5,30.7c13.7,6.8,27.3,3.4,37.6-6.8L574,510.8
	c17.1-13.7,13.7-41-3.4-54.7L416.9,350.2z M389.6,118l105.9,92.2l-105.9,75.1V118z M389.6,582.5V415.1l105.9,75.1L389.6,582.5z"/>
</svg>
