<?xml version="1.0" encoding="utf-8"?>
<!-- Generator: Adobe Illustrator 24.3.0, SVG Export Plug-In . SVG Version: 6.00 Build 0)  -->
<svg version="1.1" id="Capa_1" xmlns="http://www.w3.org/2000/svg" xmlns:xlink="http://www.w3.org/1999/xlink" x="0px" y="0px"
	 viewBox="0 0 700 700" style="enable-background:new 0 0 700 700;" xml:space="preserve">
<g>
	<path d="M13.5,417.6V282.3c0-24.3,9.7-47.6,26.9-64.8c17.2-17.2,40.5-26.9,64.8-26.9h105.7l126-121.6c7.3-7.2,17.1-11.2,27.3-11.1
		c10.2,0.1,20,4.2,27.2,11.5c7.2,7.3,11.2,17.1,11.1,27.3v506.3c0.1,10.2-3.9,20.1-11.1,27.3c-7.2,7.3-16.9,11.4-27.2,11.5
		c-10.2,0.1-20.1-3.9-27.3-11.1l-126-121.6H105.2c-24.3,0-47.6-9.7-64.8-26.9C23.2,465.3,13.5,442,13.5,417.6L13.5,417.6z
		 M497.9,452.6c27-27.3,42.2-64.2,42.2-102.6c0-38.4-15.2-75.3-42.2-102.6c-5.1-5.4-12.9-7.2-19.8-4.5c-6.9,2.7-11.4,9.4-11.5,16.8
		v180.6c0,7.4,4.6,14,11.5,16.7C485,459.7,492.8,458,497.9,452.6L497.9,452.6z M518.1,614.9c67.5-31.6,120.3-87.8,147.8-157.1
		c27.5-69.3,27.5-146.4,0-215.7S585.6,116.7,518.1,85c-11.9-5.4-25.7-4.2-36.3,3.4c-10.6,7.5-16.4,20.2-15.2,33.2
		c1.2,13,9.3,24.3,21.1,29.8c50.4,23.9,89.8,66,110.3,117.9c20.5,51.9,20.5,109.6,0,161.4c-20.5,51.9-59.9,94-110.3,117.9
		c-11.8,5.4-19.9,16.8-21.1,29.8c-1.2,13,4.6,25.6,15.2,33.2C492.4,619.1,506.2,620.3,518.1,614.9L518.1,614.9z"/>
</g>
</svg>
