<?xml version="1.0" encoding="utf-8"?>
<!-- Generator: Adobe Illustrator 24.3.0, SVG Export Plug-In . SVG Version: 6.00 Build 0)  -->
<svg version="1.1" id="Capa_1" xmlns="http://www.w3.org/2000/svg" xmlns:xlink="http://www.w3.org/1999/xlink" x="0px" y="0px"
	 viewBox="0 0 150 150" style="enable-background:new 0 0 150 150;" xml:space="preserve">
<g>
	<polygon points="64,100 62.4,107.9 87.6,107.9 86,100 	"/>
	<path d="M62.2,57.1l1.9,11.3h21.9l1.9-11.3C79.5,54.6,70.5,54.6,62.2,57.1z"/>
	<rect x="64.5" y="73.7" width="21.1" height="21.1"/>
	<path d="M96.1,76.5c0-0.1,0-0.2,0-0.4L97.8,46c0.4-7.3-4.2-14-11.2-16.1c-7.6-2.3-15.6-2.3-23.2,0c-7,2.1-11.7,8.7-11.2,16.1
		l1.8,30.2c0,0.1,0,0.2,0,0.4l-2.6,31.6c0.1,5.7,4.8,10.3,10.5,10.3h26.3c5.8,0,10.5-4.7,10.5-10.5L96.1,76.5z M57.3,40.2l2.6-2.6
		c1-1,2.7-1,3.7,0.1c1,1,1,2.6,0,3.7L61.1,44c-1,1-2.7,1-3.7-0.1C56.4,42.9,56.4,41.3,57.3,40.2z M93.4,110c0.3,1.4-0.6,2.8-2.1,3.1
		c-0.2,0-0.3,0.1-0.5,0.1H59.2c-1.5,0-2.6-1.2-2.6-2.6c0-0.2,0-0.4,0.1-0.5l2.6-12.9V71.3l-2.6-15.6c-0.2-1.3,0.5-2.5,1.8-2.9
		l0.8-0.3c10.3-3.4,21.4-3.4,31.6,0l0.8,0.3c1.2,0.4,2,1.7,1.8,2.9l-2.6,15.6v25.8L93.4,110z M92.7,43.9c-1,1-2.7,1-3.7,0l-2.6-2.6
		c-1-1-1-2.7,0.1-3.7c1-1,2.6-1,3.7,0l2.6,2.6C93.7,41.2,93.7,42.9,92.7,43.9C92.7,44,92.7,44,92.7,43.9L92.7,43.9z"/>
	<path d="M96.1,10.5v5.3c10.2,0,18.4,8.3,18.4,18.4h5.3C119.7,21.1,109.1,10.5,96.1,10.5z"/>
	<path d="M96.1,0v5.3c16,0,28.9,13,28.9,28.9h5.3C130.2,15.3,114.9,0,96.1,0z"/>
	<path d="M35.5,34.2c0-10.2,8.3-18.4,18.4-18.4v-5.3c-13.1,0-23.7,10.6-23.7,23.7H35.5z"/>
	<path d="M53.9,0C35.1,0,19.8,15.3,19.7,34.2H25c0-16,13-28.9,28.9-28.9V0z"/>
	<path d="M96.1,134.2v5.3c13.1,0,23.7-10.6,23.7-23.7h-5.3C114.5,126,106.2,134.2,96.1,134.2z"/>
	<path d="M96.1,144.7v5.3c18.9,0,34.2-15.3,34.2-34.2H125C125,131.8,112,144.7,96.1,144.7z"/>
	<path d="M35.5,115.8h-5.3c0,13.1,10.6,23.7,23.7,23.7v-5.3C43.8,134.2,35.5,126,35.5,115.8z"/>
	<path d="M25,115.8h-5.3c0,18.9,15.3,34.2,34.2,34.2v-5.3C38,144.7,25,131.8,25,115.8z"/>
</g>
</svg>
