<?xml version="1.0" encoding="utf-8"?>
<!-- Generator: Adobe Illustrator 24.3.0, SVG Export Plug-In . SVG Version: 6.00 Build 0)  -->
<svg version="1.1" id="Capa_1" xmlns="http://www.w3.org/2000/svg" xmlns:xlink="http://www.w3.org/1999/xlink" x="0px" y="0px"
	 viewBox="0 0 150 150" style="enable-background:new 0 0 150 150;" xml:space="preserve">
<g>
	<path d="M103.2,55.5c4.1,0,8-1.7,10.8-4.9c2.8-3,4.3-7,4.3-11.3c0-7.8-10.3-21-12.4-23.5c-1.3-1.6-4.2-1.6-5.5,0
		c-2.1,2.6-12.3,15.7-12.4,23.5C88.1,48.2,94.9,55.5,103.2,55.5z"/>
	<path d="M148.2,47.4c-0.3-0.2-7-6-19.6-11.8c-1.9-0.9-4.3-0.1-5.2,1.8c-0.9,1.9-0.1,4.1,1.8,5c7.4,3.4,12.5,6.8,15.3,8.8
		l-28.9,50.7c-6.3-1.7-21.4-5.3-36.7-5.3c-2.5,0-5,0.1-7.4,0.2L37.9,36.5c9.6-2.9,21.3-5.1,35.4-5.1c3.2,0,6.4,0.1,9.5,0.3
		c2.1,0.2,4-1.4,4.2-3.5c0.2-2.1-1.5-3.9-3.6-4c-3.3-0.2-6.7-0.3-10-0.3C26,23.9,2.6,46.6,1.6,47.5c-1.2,1.2-1.4,3-0.6,4.4l32,56.1
		c0.7,1.2,2,1.9,3.4,1.9c0.4,0,0.9-0.1,1.3-0.2c0.1,0,9.1-3.2,22.4-4.8l4.7,9.5c-1.9,2.2-3.1,5.1-3.1,8.2c0,7.1,6,12.8,13.3,12.8
		c7.3,0,13.3-5.8,13.3-12.8c0-7.1-5.9-12.8-13.3-12.8c-0.3,0-0.6,0-0.9,0l-2.8-5.7c1.2,0,2.5-0.1,3.8-0.1c18.4,0,37.2,5.7,37.4,5.8
		c1.8,0.5,3.7-0.2,4.6-1.8L149,52C149.9,50.4,149.6,48.5,148.2,47.4z M38.2,101.8L9.3,51c3-2.4,9.3-6.8,18.8-10.9l28.5,57.8
		C48.3,99,41.9,100.7,38.2,101.8z"/>
</g>
</svg>
