<?xml version="1.0" encoding="utf-8"?>
<!-- Generator: Adobe Illustrator 24.3.0, SVG Export Plug-In . SVG Version: 6.00 Build 0)  -->
<svg version="1.1" id="Capa_1" xmlns="http://www.w3.org/2000/svg" xmlns:xlink="http://www.w3.org/1999/xlink" x="0px" y="0px"
	 viewBox="0 0 700 700" style="enable-background:new 0 0 700 700;" xml:space="preserve">
<g>
	<g>
		<g>
			<path d="M459.1,104.1L459.1,104.1L459.1,104.1z"/>
			<path d="M480,304.2c0-0.8,0-1.5,0-2.3l10.9-185.5c1.4-21.8-4.7-43.4-17.3-61.3s-30.7-31-51.6-37.2C375.5,4,325.9,4,279.4,17.9
				c-20.9,6.2-39.2,19.4-51.6,37.2c-12.6,17.9-18.6,39.5-17.3,61.3l10.9,185.5c0,0.8,0,1.5,0,2.3l-16.2,193.9
				c0.3,17,7.3,33,19.4,44.8s28.3,18.5,45.3,18.5h161.7c17.1,0,33.6-6.8,45.7-18.9c12.1-12.1,18.9-28.6,18.9-45.7L480,304.2z
				 M265.2,104.2c-6.4,6.1-16.3,6.1-22.7-0.2c-6.2-6.2-6.4-16.3-0.2-22.7l16.2-16.2c6.4-6.1,16.3-6.1,22.7,0.2
				c6.2,6.2,6.4,16.3,0.2,22.7L265.2,104.2z M417.8,254.4H283.5l-11.7-69.6l0,0c51.3-15.3,106.1-15.3,157.4,0L417.8,254.4z
				 M459.1,104.2L459.1,104.2c-6.4,6.2-16.5,6.2-22.9-0.2L420,87.9c-6.1-6.4-6.1-16.3,0.2-22.7c6.2-6.2,16.3-6.4,22.7-0.2l16.2,16.2
				c3,3,4.8,7.1,4.8,11.5C463.9,97.1,462.1,101.2,459.1,104.2z"/>
		</g>
	</g>
	<g>
		<g>
			<path d="M257.9,678.3c0,0.2,0,0.4,0,0.6c-0.3,7.8-6.9,13.9-14.8,13.6c-1.8-0.1-44.3-2.1-87.2-24.7
				c-40.5-21.4-88.7-65.5-88.7-154.2c0-7.8,6.4-14.2,14.2-14.2s14.2,6.4,14.2,14.2c0,59.5,24.5,102.8,72.8,128.6
				c37.3,20,75.6,21.9,76,21.9C251.9,664.4,257.9,670.7,257.9,678.3z"/>
		</g>
		<g>
			<path d="M258.2,611.7c0,0.2,0,0.4,0,0.6c-0.3,7.8-6.9,13.9-14.8,13.6c-1.1,0-27.7-1.3-54.4-15.4c-25.5-13.5-55.9-41.2-55.9-96.9
				c0-7.8,6.4-14.2,14.2-14.2c7.8,0,14.2,6.4,14.2,14.2c0,79.1,79.8,83.8,83.2,83.9C252.3,597.9,258.2,604.2,258.2,611.7z"/>
		</g>
	</g>
	<g>
		<g>
			<path d="M618.6,501.8c0.2,0,0.4,0,0.6,0c7.8,0.3,13.9,6.9,13.6,14.8c-0.1,1.8-2.1,44.3-24.7,87.2
				c-21.4,40.5-65.5,88.7-154.2,88.7c-7.8,0-14.2-6.4-14.2-14.2c0-7.8,6.4-14.2,14.2-14.2c59.5,0,102.8-24.5,128.6-72.8
				c20-37.3,21.9-75.6,21.9-76C604.8,507.7,611.1,501.8,618.6,501.8z"/>
		</g>
		<g>
			<path d="M552.1,501.5c0.2,0,0.4,0,0.6,0c7.8,0.3,13.9,6.9,13.6,14.8c0,1.1-1.3,27.7-15.4,54.4c-13.5,25.5-41.2,55.9-96.9,55.9
				c-7.8,0-14.2-6.4-14.2-14.2c0-7.8,6.4-14.2,14.2-14.2c79.1,0,83.8-79.8,83.9-83.2C538.2,507.4,544.5,501.5,552.1,501.5z"/>
		</g>
	</g>
</g>
</svg>
