<?xml version="1.0" encoding="utf-8"?>
<!-- Generator: Adobe Illustrator 24.3.0, SVG Export Plug-In . SVG Version: 6.00 Build 0)  -->
<svg version="1.1" id="Capa_1" xmlns="http://www.w3.org/2000/svg" xmlns:xlink="http://www.w3.org/1999/xlink" x="0px" y="0px"
	 viewBox="0 0 700 700" style="enable-background:new 0 0 700 700;" xml:space="preserve">
<style type="text/css">
	.st0{fill-rule:evenodd;clip-rule:evenodd;}
</style>
<g>
	<path class="st0" d="M685.9,435.4c5.3,52.6-2.6,107.7-21,160.3l-76.2-47.3c13.1-36.8,15.8-76.2,10.5-113L685.9,435.4z"/>
	<path class="st0" d="M628.1,264.6c28.9,42,44.7,89.4,52.6,136.7h-86.7c-7.9-31.5-21-63.1-39.4-92L628.1,264.6z"/>
	<path class="st0" d="M512.5,149c36.8,21,71,52.6,99.9,89.4L536.1,283c-18.4-21-42-39.4-65.7-55.2L512.5,149z"/>
	<path class="st0" d="M365.3,104.3c42,2.6,81.5,13.1,120.9,28.9l-44.7,81.5c-23.7-10.5-49.9-15.8-76.2-18.4L365.3,104.3z"/>
	<path class="st0" d="M215.5,133.2c36.8-15.8,78.8-26.3,118.3-28.9v92c-26.3,2.6-49.9,7.9-76.2,18.4L215.5,133.2z"/>
	<path class="st0" d="M89.3,238.3c26.3-36.8,60.4-68.3,97.2-89.4l44.7,78.8C205,243.6,184,262,162.9,283L89.3,238.3z"/>
	<path class="st0" d="M18.4,401.2c7.9-47.3,26.3-94.6,52.6-136.7l73.6,44.7c-18.4,28.9-31.5,60.4-39.4,92L18.4,401.2z"/>
	<path class="st0" d="M34.2,595.7c-18.4-52.6-23.7-107.7-21-160.3h86.7c-2.6,36.8,0,76.2,10.5,113L34.2,595.7z"/>
	<path class="st0" d="M578.2,490.6c-44.7-26.3-186.6-120.9-210.2-128.8c-26.3-10.5-52.6,2.6-63.1,28.9c-7.9,23.7,5.3,52.6,28.9,60.4
		C357.4,461.7,528.2,480.1,578.2,490.6L578.2,490.6z M375.8,414.4c13.1-34.2-42-55.2-55.2-18.4C307.5,430.2,362.7,451.2,375.8,414.4
		z"/>
</g>
</svg>
