<?xml version="1.0" encoding="utf-8"?>
<!-- Generator: Adobe Illustrator 24.3.0, SVG Export Plug-In . SVG Version: 6.00 Build 0)  -->
<svg version="1.1" id="Capa_1" xmlns="http://www.w3.org/2000/svg" xmlns:xlink="http://www.w3.org/1999/xlink" x="0px" y="0px"
	 viewBox="0 0 700 700" style="enable-background:new 0 0 700 700;" xml:space="preserve">
<style type="text/css">
	.st0{fill-rule:evenodd;clip-rule:evenodd;}
</style>
<g>
	<path class="st0" d="M150.9,289.4c-5.2-6.1-6.8-15.3-1.8-23.5c5-8.2,12.9-14.7,21.9-19.2v-120c0-63.6,51.6-115,115-115h125.7
		c63.6,0,115,51.6,115,115v114.5c10,4.7,18.8,11.3,24.2,20.3c5,8.4,3.2,17.4-1.8,23.5c-4.5,5.5-11.6,8.4-18.4,8.4h-3.9v291
		c0,57.4-46.6,103.9-103.9,103.9H275c-57.4,0-103.9-46.6-103.9-103.9V297.8h-1.6C162.5,297.8,155.6,294.9,150.9,289.4L150.9,289.4z
		 M446.8,317.1c0-23.4-19-42.2-42.2-42.2H291.9c-23.4,0-42.4,19-42.4,42.2v188c0,23.4,19,42.2,42.2,42.2h112.8
		c23.4,0,42.2-19,42.2-42.2L446.8,317.1z M225.5,115c-5.5-5.5-5.5-14.5,0-20c16.6-16.6,36.1-29.6,57.7-38.5
		c7.2-3.1,15.5,0.5,18.4,7.6c3.1,7.2-0.5,15.5-7.6,18.4c-18.2,7.6-34.6,18.5-48.7,32.4C239.8,120.4,231,120.4,225.5,115L225.5,115z
		 M400.9,64c3.1-7.2,11.3-10.6,18.4-7.6c21.6,8.9,41.2,22.1,57.7,38.5c5.5,5.5,5.5,14.5,0,20c-5.5,5.5-14.5,5.5-20,0
		c-13.9-13.9-30.4-25-48.7-32.4C401.4,79.5,398,71.3,400.9,64L400.9,64z"/>
</g>
</svg>
