<?xml version="1.0" encoding="utf-8"?>
<!-- Generator: Adobe Illustrator 24.3.0, SVG Export Plug-In . SVG Version: 6.00 Build 0)  -->
<svg version="1.1" id="Capa_1" xmlns="http://www.w3.org/2000/svg" xmlns:xlink="http://www.w3.org/1999/xlink" x="0px" y="0px"
	 viewBox="0 0 700 700" style="enable-background:new 0 0 700 700;" xml:space="preserve">
<g>
	<path d="M238.8,221.4c-5.1-7.2-13.5-12.4-22.6-13.5c-16.4-2.2-32.1,9.5-35.7,26.2l-4,17.8c-1.1,4.8-0.3,9.8,2.6,13.8
		c2.9,4,6.9,6.9,11.7,8l23.7,5.1c1.4,0.3,2.6,0.3,4,0.3c7.2,0,14.3-4.3,17.2-11.3l8.4-20.1l0.3-1.1
		C245.7,238.4,243.8,228.9,238.8,221.4L238.8,221.4z"/>
	<path d="M212.5,283.6l-6.9-1.8c-14.6-4-27.7-2.6-38.2,4c-12.7,8-21.8,23.3-26.2,44.1l-12.7,64.2c-0.3,2.2-2.2,3.2-4.3,3.2
		l-52.5-5.1c-20.4-1.1-38.7,4-49.9,14.9C11.9,416.4,6,429.4,6,445.1v1.4c0,10.6,8.4,19.7,18.3,23v5.5c0,10.3,8.4,17.8,18.6,17.8H162
		c10.3,0,18.9-7.7,18.9-17.8v-24.1c2.9-4,5.1-8.7,6.6-13.8l38.7-129.7C228.2,296.4,222.3,286.5,212.5,283.6L212.5,283.6z
		 M165.9,474.5c0,2.2-2.2,3.2-4.3,3.2H42.3c-2.2,0-4-1.4-4-3.2v-4h103.8c8.4,0,16.7-2.6,23.7-6.9L165.9,474.5z"/>
</g>
<g>
	<path d="M463.8,221.4c-5.1-7.2-13.5-12.4-22.6-13.5c-16.4-2.2-32.1,9.5-35.7,26.2l-4,17.8c-1.1,4.8-0.3,9.8,2.6,13.8
		c2.9,4,6.9,6.9,11.7,8l23.7,5.1c1.4,0.3,2.6,0.3,4,0.3c7.2,0,14.3-4.3,17.2-11.3l8.4-20.1l0.3-1.1
		C470.7,238.4,469,228.9,463.8,221.4L463.8,221.4z"/>
	<path d="M437.6,283.6l-6.9-1.8c-14.6-4-27.7-2.6-38.2,4c-12.7,8-21.8,23.3-26.2,44.1l-12.7,64.2c-0.3,2.2-2.2,3.2-4.3,3.2
		l-52.5-5.1c-20.4-1.1-38.7,4-49.9,14.9c-9.8,9.1-15.7,22.2-15.7,37.9v1.4c0,10.6,8.4,19.7,18.3,23v5.5c0,10.3,8.4,17.8,18.6,17.8
		h119.1c10.3,0,18.9-7.7,18.9-17.8v-24.1c2.9-4,5.1-8.7,6.6-13.8l38.7-129.7C453.2,296.4,447.5,286.5,437.6,283.6L437.6,283.6z
		 M391,474.5c0,2.2-2.2,3.2-4.3,3.2H267.5c-2.2,0-4-1.4-4-3.2v-4h103.8c8.4,0,16.7-2.6,23.7-6.9L391,474.5z"/>
</g>
<g>
	<path d="M689,221.4c-5.1-7.2-13.5-12.4-22.6-13.5c-16.4-2.2-32.1,9.5-35.7,26.2l-4,17.8c-1.1,4.8-0.3,9.8,2.6,13.8s6.9,6.9,11.7,8
		l23.7,5.1c1.4,0.3,2.6,0.3,4,0.3c7.2,0,14.3-4.3,17.2-11.3l8.4-20.1l0.3-1.1C695.9,238.4,694,228.9,689,221.4L689,221.4z"/>
	<path d="M662.7,283.6l-6.9-1.8c-14.6-4-27.7-2.6-38.2,4c-12.7,8-21.8,23.3-26.2,44.1l-12.7,64.2c-0.3,2.2-2.2,3.2-4.3,3.2
		l-52.5-5.1c-20.4-1.1-38.7,4-49.9,14.9c-9.8,9.1-15.7,22.2-15.7,37.9v1.4c0,10.6,8.4,19.7,18.3,23v5.5c0,10.3,8.4,17.8,18.6,17.8
		h119.1c10.3,0,18.9-7.7,18.9-17.8v-24.1c2.9-4,5.1-8.7,6.6-13.8l38.7-129.7C678.4,296.4,672.5,286.5,662.7,283.6L662.7,283.6z
		 M616,474.5c0,2.2-2.2,3.2-4.3,3.2H492.6c-2.2,0-4-1.4-4-3.2v-4h103.8c8.4,0,16.7-2.6,23.7-6.9L616,474.5z"/>
</g>
</svg>
