<?xml version="1.0" encoding="utf-8"?>
<!-- Generator: Adobe Illustrator 24.3.0, SVG Export Plug-In . SVG Version: 6.00 Build 0)  -->
<svg version="1.1" id="Capa_1" xmlns="http://www.w3.org/2000/svg" xmlns:xlink="http://www.w3.org/1999/xlink" x="0px" y="0px"
	 viewBox="0 0 700 700" style="enable-background:new 0 0 700 700;" xml:space="preserve">
<g>
	<path d="M393.8,16.2v27.7c0,24.6-20,44.6-44.6,44.6s-44.6-20-44.6-44.6V16.2c13.8-6.2,29.2-9.2,44.6-9.2S380,10.1,393.8,16.2z
		 M269.2,268.5l-26.1-133.8c-6.2-32.3,1.5-64.6,23.1-89.2c1.5-3.1,4.6-4.6,7.7-7.7v6.2c0,41.5,33.8,75.4,75.4,75.4
		s75.4-33.8,75.4-75.4v-6.2l7.7,7.7c20,24.6,29.2,56.9,23.1,89.2l-26.1,133.8c0,4.6-4.6,6.2-7.7,6.2h-143
		C273.9,274.6,269.2,271.6,269.2,268.5z M316.9,305.4h66.1V450h-66.1V305.4z M183.1,539.2c0-32.3,26.1-58.4,58.4-58.4h215.3
		c32.3,0,58.4,26.1,58.4,58.4v32.3H183.1V539.2z M584.6,693H113.9v-40c0-29.2,23.1-52.3,52.3-52.3h367.6c29.2,0,52.3,23.1,52.3,52.3
		v40H584.6z"/>
</g>
</svg>
