<?xml version="1.0" encoding="utf-8"?>
<!-- Generator: Adobe Illustrator 24.3.0, SVG Export Plug-In . SVG Version: 6.00 Build 0)  -->
<svg version="1.1" id="Capa_1" xmlns="http://www.w3.org/2000/svg" xmlns:xlink="http://www.w3.org/1999/xlink" x="0px" y="0px"
	 viewBox="0 0 700 700" style="enable-background:new 0 0 700 700;" xml:space="preserve">
<g>
	<path d="M691.9,111.9c-0.2-4.3-3.7-7.8-8.1-7.8h-61.5c-4.4,0-7.9,3.5-8.1,7.8h-263C215,111.9,104.6,218.5,104.6,350
		c0,25.4,4.1,49.8,11.8,72.7H85.9v-1.4c0-4.5-3.7-8.2-8.2-8.2H16.2c-4.5,0-8.2,3.7-8.2,8.2v166.3c0,4.5,3.7,8.2,8.2,8.2h61.5
		c4.4,0,7.9-3.5,8.1-7.8H357c136.2,0,246.6-106.6,246.6-238.1c0-25.4-4.2-49.8-11.8-72.7h22.4v1.4c0,4.5,3.7,8.2,8.2,8.2h61.5
		c4.5,0,8.2-3.7,8.2-8.2v-1.4l0-165L691.9,111.9L691.9,111.9z M492.1,149.6c0.1,0.1,0.2,0.1,0.3,0.2h-0.3V149.6z M123.2,570.7v-20.4
		h58.1c9.9,8,20.8,14.9,32.5,20.4H123.2z M352.3,481.3C279.8,481.3,221,422.5,221,350c0-72.5,58.8-131.3,131.3-131.3
		c72.5,0,131.3,58.8,131.3,131.3C483.7,422.5,424.9,481.3,352.3,481.3z M344.5,160c-117,12.4-201.7,117.2-189.4,234.2
		c4.8,45,23.3,85.2,50.9,117c-38.6-34-65-82-70.8-137.2C122.8,257,207.6,152.2,324.6,139.8c71.9-7.6,139.3,21.6,183.4,72.4
		C464.7,174,406.3,153.4,344.5,160L344.5,160z M585,149.8h-58.1c-9.9-8.1-20.8-15-32.5-20.5H585L585,149.8L585,149.8z"/>
	<path d="M365.9,326.5l6.2-76h-39.5l6.2,76c-4.2,2.4-7.6,5.8-10,10l-76-6.2v39.6l76-6.3c2.4,4.2,5.8,7.6,10,10l-6.2,76h39.5l-6.2-76
		c4.2-2.4,7.6-5.9,10-10l76,6.3v-39.6l-76,6.2C373.5,332.3,370,328.9,365.9,326.5z"/>
</g>
</svg>
