<?xml version="1.0" encoding="utf-8"?>
<!-- Generator: Adobe Illustrator 24.3.0, SVG Export Plug-In . SVG Version: 6.00 Build 0)  -->
<svg version="1.1" id="Capa_1" xmlns="http://www.w3.org/2000/svg" xmlns:xlink="http://www.w3.org/1999/xlink" x="0px" y="0px"
	 viewBox="0 0 700 700" style="enable-background:new 0 0 700 700;" xml:space="preserve">
<g>
	<path d="M550.9,222c-3.8,1.1-7.4,2.1-11.1,3.1c-4.3,1.1-8.8,2.2-13.2,3.2c-3.8,1-7.7,1.8-11.4,2.6c-4.6,1-9.2,1.8-13.9,2.8
		c-3.9,0.7-7.8,1.5-11.8,2.2c-4.7,0.8-9.7,1.5-14.6,2.4c-4,0.6-7.9,1.3-12,1.8c-5.2,0.7-10.3,1.3-15.5,1.8c-3.9,0.4-7.8,1-11.8,1.4
		c-5.4,0.6-11.1,1-16.6,1.4c-3.8,0.3-7.5,0.7-11.3,1c-6.1,0.4-12.4,0.7-18.7,1c-3.3,0.1-6.5,0.4-9.9,0.4c-9.6,0.3-19.2,0.4-29,0.4
		s-19.5-0.1-29-0.4c-3.3-0.1-6.5-0.3-9.9-0.4c-6.3-0.3-12.5-0.6-18.7-1c-3.8-0.3-7.5-0.7-11.3-1c-5.6-0.4-11.1-0.8-16.7-1.4
		c-4-0.4-7.8-1-11.8-1.4c-5.2-0.6-10.4-1.1-15.5-1.9c-4-0.6-7.9-1.3-12-1.8c-4.9-0.7-9.7-1.5-14.6-2.4c-4-0.7-7.8-1.5-11.8-2.2
		c-4.6-1-9.3-1.8-13.9-2.8c-3.9-0.8-7.7-1.8-11.4-2.6c-4.5-1.1-8.9-2.1-13.2-3.2c-3.8-1-7.4-2.1-11.1-3.1c-3.2-0.8-6.4-1.7-9.6-2.6
		c-15,24-25.6,49.9-31.5,77.1c2.2,1.5,4.3,3.3,6.4,5c2.5,1.8,4.9,3.8,7.4,5.7c2.9,2.4,5.8,4.7,8.8,7.2c2.4,1.9,4.7,3.9,7.1,6
		c2.9,2.5,5.8,5.3,8.9,7.9c2.2,2.1,4.6,4,6.8,6.1c3.1,2.8,6,5.7,8.9,8.6c2.1,2.1,4.3,4.2,6.4,6.3c3.1,3.1,6.1,6.3,9.2,9.5
		c1.9,2.1,4,4,6,6.1c3.2,3.3,6.3,7,9.3,10.4c1.8,1.9,3.6,3.9,5.3,6c3.3,3.9,6.7,7.9,10,12c1.4,1.7,2.9,3.3,4.3,5.2
		c4.7,5.8,9.3,11.7,13.8,17.7c5.8,7.8,11.4,15.7,16.9,23.7c1.7,2.5,3.2,5,4.9,7.5c3.5,5.4,7.1,10.9,10.3,16.2
		c1.9,3.1,3.5,6.1,5.3,9.3c2.8,4.9,5.6,9.6,8.2,14.5c1.8,3.3,3.3,6.5,5,9.9c2.4,4.5,4.6,9.1,6.7,13.5c1.7,3.5,2.9,6.8,4.5,10.2
		c1.8,4.3,3.8,8.6,5.4,12.8c1.4,3.5,2.5,6.8,3.8,10.2c1.5,4,2.9,8.2,4.3,12.3c1.1,3.3,1.9,6.7,2.9,10c1.1,3.9,2.2,7.8,3.1,11.6
		c0.7,3.2,1.4,6.4,1.9,9.6c0.6,2.6,1.3,5.3,1.5,7.9c25.3,4,51.8,4,77.1,0c0.4-2.5,1.1-5.3,1.5-7.9c0.6-3.2,1.1-6.3,1.9-9.6
		c0.8-3.8,1.9-7.7,3.1-11.6c1-3.3,1.8-6.5,2.9-9.9c1.3-4,2.8-8.1,4.3-12.3c1.3-3.3,2.4-6.7,3.8-10.2c1.7-4.2,3.6-8.5,5.4-12.8
		c1.5-3.3,2.9-6.8,4.5-10.2c2.1-4.5,4.5-9.1,6.7-13.5c1.7-3.3,3.2-6.5,5-9.9c2.6-4.9,5.4-9.6,8.2-14.5c1.8-3.1,3.5-6.1,5.3-9.2
		c3.3-5.4,6.8-10.9,10.4-16.3c1.7-2.5,3.1-5,4.7-7.4c5.3-7.9,11-15.9,16.9-23.7c4.5-6,9.1-12,13.8-17.7c1.4-1.7,2.8-3.3,4.2-5
		c3.3-4,6.7-8.1,10-12.1c1.8-2.1,3.6-4,5.3-6c3.1-3.5,6.3-7,9.3-10.4c1.9-2.1,3.9-4.2,6-6.3c3.1-3.2,6-6.4,9.1-9.5
		c2.1-2.1,4.3-4.2,6.5-6.3c2.9-2.9,5.8-5.7,8.9-8.5c2.2-2.1,4.6-4.2,6.8-6.1c2.9-2.6,5.8-5.3,8.8-7.8c2.4-2.1,4.7-4,7.1-6
		c2.9-2.4,5.8-4.9,8.8-7.2c2.5-1.9,4.9-3.8,7.4-5.7c2.1-1.7,4.3-3.3,6.4-5c-6-27.2-16.6-53.1-31.5-77.1
		C557.4,220.2,554.1,221.1,550.9,222L550.9,222z M205.2,325c-16.9,0-30.6-13.8-30.6-30.6s13.8-30.6,30.6-30.6s30.6,13.8,30.6,30.6
		S222,325,205.2,325z M383.4,458.6h-66.8c-4.6,0-8.4-3.8-8.4-8.4s3.8-8.4,8.4-8.4h66.8c4.6,0,8.4,3.8,8.4,8.4S388,458.6,383.4,458.6
		z M372.3,391.8h-44.6c-23,0-41.8-18.8-41.8-41.8s18.8-41.8,41.8-41.8h44.6c23,0,41.8,18.8,41.8,41.8S395.3,391.8,372.3,391.8z
		 M494.8,325c-16.9,0-30.6-13.8-30.6-30.6s13.8-30.6,30.6-30.6s30.6,13.8,30.6,30.6S511.7,325,494.8,325z"/>
	<path d="M674.6,259.4L674.6,259.4c-8.1-29.1-20.2-57.1-35.9-83C577.1,74,469.2,13,350,13S122.9,74,61.3,176.4
		c-15.7,26-27.9,53.9-35.9,83C17.2,288.9,13,319.4,13,350c0,156.5,110.7,294.8,263.2,328.9c48.5,10.7,99.2,10.7,147.6,0
		C576.3,644.8,687,506.5,687,350C687,319.4,682.8,288.9,674.6,259.4L674.6,259.4z M397.6,610.3C397.6,610.3,397.5,610.3,397.6,610.3
		c-15.6,2.9-31.6,4.3-47.6,4.3s-32-1.5-47.5-4.3l0,0C176.6,587.4,85.4,478,85.4,350c0-17.4,1.7-34.8,5-51.5l0,0
		c6.5-33.3,19.5-64.8,38.4-93.6l0,0l0,0l0,0c49-74.8,131.7-119.5,221.1-119.5S522,130,571.1,204.8l0,0l0,0l0,0
		c18.9,28.8,31.9,60.3,38.4,93.6l0,0c3.3,16.9,5,34.1,5,51.5C614.6,478,523.4,587.4,397.6,610.3L397.6,610.3z"/>
</g>
</svg>
