<?xml version="1.0" encoding="utf-8"?>
<!-- Generator: Adobe Illustrator 24.3.0, SVG Export Plug-In . SVG Version: 6.00 Build 0)  -->
<svg version="1.1" id="Capa_1" xmlns="http://www.w3.org/2000/svg" xmlns:xlink="http://www.w3.org/1999/xlink" x="0px" y="0px"
	 viewBox="0 0 150 150" style="enable-background:new 0 0 150 150;" xml:space="preserve">
<g>
	<path d="M148.9,82.1c-0.4-1.1-1-2.2-1.8-3.1c-0.8-1-1.6-1.8-2.7-2.5l0.2,0l0-1.1c-1.7-38.1-33-68.4-71.2-68.8l-0.9,0
		C33.2,6.6,0.9,38.5,0.3,77.8c-0.2,11.3,2.4,22.7,7.4,32.9c0.7,1.3,2,2.2,3.5,2.2c2.1,0,3.9-1.7,3.9-3.9c0-0.6-0.1-1.1-0.4-1.7
		C10,97.8,7.8,87.5,8.1,76.9c1-34.5,28.8-61.9,63.3-62.5l1.1,0c33.8,0,61.9,26.3,64.2,60c-6.3,0.4-11.4,5.6-11.4,12.1
		c0,1.8,0.4,3.5,1.1,5.1l0.1,0.3V92c0.2,1.9-0.2,3.5-1.3,4.7c-1.3,1.5-3.4,2.2-5.9,1.9c-0.2,0-0.4,0-0.6-0.1c-0.1,0-0.3,0-0.4,0
		h-0.3c-1.2,0-2.5,0-3.7-0.1c-1.2,0-2.4-0.1-3.6-0.1c-1.8,0-3.3,0.1-4.6,0.4c-12.6,2.4-19.9,13.3-17.8,26.6
		c1.4,8.7,6.3,14.6,14.3,17.2c2,0.6,4,0.9,5.8,0.9c5.2,0,10.1-2.2,15.2-6.9c1.3-1.2,2.5-2.3,3.8-3.5c3-2.7,6.1-5.5,9-8.4
		c0.6-0.6,1.1-1.5,1.1-1.8c-0.2-0.4-1.2-1.2-1.8-1.2c-0.2,0-0.5,0-0.7,0c-1.7,0-3.2,0.3-4.5,0.9c-3.1,1.4-6.1,3.1-9,4.6
		c-1.1,0.6-2.2,1.2-3.3,1.8c-3.9,2.1-7.8,2-11.2-0.2c-3.2-2.1-4.6-5.5-3.9-9.4c0.9-4.5,4.2-6.9,7.4-8.7c5.2-2.8,10.9-3.5,16.4-4.1
		c0.6-0.1,1.3-0.2,1.9-0.2c3-0.4,4.8-1.4,6.1-3.5c1.1-1.8,2.6-3.2,4.5-4.4l0.2-0.1l0.2,0c5.6-1.2,9.6-6.2,9.6-11.9
		C149.7,84.9,149.4,83.4,148.9,82.1z M137.7,94.1c-4.1,0-7.5-3.4-7.5-7.5c0-4.1,3.4-7.5,7.5-7.5s7.5,3.4,7.5,7.5
		C145.2,90.7,141.9,94.1,137.7,94.1z"/>
</g>
</svg>
